<?xml version="1.0" standalone="no"?>
<!DOCTYPE svg PUBLIC "-//W3C//DTD SVG 20010904//EN"
 "http://www.w3.org/TR/2001/REC-SVG-20010904/DTD/svg10.dtd">
<svg version="1.0" xmlns="http://www.w3.org/2000/svg"
 width="700.000000pt" height="700.000000pt" viewBox="0 0 700.000000 700.000000"
 preserveAspectRatio="xMidYMid meet">
<metadata>
Created by potrace 1.11, written by Peter Selinger 2001-2013
</metadata>
<g transform="translate(0.000000,700.000000) scale(0.100000,-0.100000)"
fill="#000000" stroke="none">
<path d="M1629 5462 c-11 -2 -49 -105 -119 -320 -191 -585 -207 -636 -300
-922 -51 -157 -130 -400 -175 -540 -46 -140 -134 -410 -195 -600 -62 -190
-122 -376 -135 -415 -31 -95 -290 -893 -355 -1097 -5 -16 -6 -28 -2 -28 6 -1
425 -1 1113 0 l105 0 39 123 c21 67 64 201 96 297 32 96 107 330 169 520 61
190 120 370 130 400 17 50 218 672 224 695 2 8 114 -316 120 -350 2 -9 204
-630 246 -755 10 -30 69 -210 130 -400 134 -413 171 -524 176 -529 3 -3 1116
-5 1189 -2 25 1 -1 -75 357 1031 28 85 72 220 98 300 26 80 89 273 140 430 51
157 94 281 96 275 7 -26 313 -975 321 -995 3 -8 7 -19 9 -25 1 -5 32 -102 69
-215 57 -174 135 -413 140 -430 1 -3 4 -12 8 -20 3 -8 29 -89 58 -180 28 -91
53 -166 54 -168 4 -4 1217 -3 1221 1 2 2 -21 79 -52 173 -103 316 -182 558
-299 919 -64 198 -127 392 -140 430 -13 39 -72 219 -130 400 -59 182 -119 368
-135 415 -15 47 -74 227 -130 400 -56 173 -110 340 -120 370 -10 30 -69 210
-130 400 -61 190 -114 352 -117 360 -3 8 -7 21 -9 28 -1 8 -5 16 -8 19 -4 4
-1143 8 -1217 4 -10 -1 -21 -17 -28 -43 -7 -24 -64 -203 -128 -398 -63 -195
-142 -438 -175 -540 -32 -102 -68 -210 -78 -240 -21 -61 -221 -680 -242 -747
-7 -24 -15 -43 -18 -43 -3 0 -11 19 -18 43 -15 48 -224 692 -252 777 -10 30
-64 197 -120 370 -56 173 -130 401 -164 505 -34 105 -71 218 -82 252 -15 49
-23 63 -39 64 -59 2 -1184 4 -1196 1z"/>
</g>
</svg>
