<?xml version="1.0" encoding="utf-8"?>
<!-- Generator: Adobe Illustrator 16.0.0, SVG Export Plug-In . SVG Version: 6.00 Build 0)  -->
<!DOCTYPE svg PUBLIC "-//W3C//DTD SVG 1.1//EN" "http://www.w3.org/Graphics/SVG/1.1/DTD/svg11.dtd">
<svg version="1.1" id="Layer_1" xmlns="http://www.w3.org/2000/svg" xmlns:xlink="http://www.w3.org/1999/xlink" x="0px" y="0px"
	 width="21.785px" height="28.773px" viewBox="0 0 21.785 28.773" enable-background="new 0 0 21.785 28.773" xml:space="preserve">
<polygon fill-rule="evenodd" clip-rule="evenodd" fill="#0095DA" points="21.786,10.821 21.756,-0.06 0,0 0.06,21.755 
	10.599,21.727 3.469,9.455 16.57,1.843 21.786,10.821 "/>
<polygon fill-rule="evenodd" clip-rule="evenodd" fill="#8ED8F8" points="19.459,8.852 16.15,3.159 4.768,9.773 11.381,21.156 
	16.896,17.952 9.446,13.678 14.009,5.725 19.459,8.852 "/>
<polygon fill-rule="evenodd" clip-rule="evenodd" fill="#A6CE39" points="17.641,8.64 14.305,6.726 10.478,13.396 17.148,17.222 
	19.002,13.992 13.985,14.004 13.971,8.65 17.641,8.64 "/>
<path fill="#A6CE39" d="M1.979,23.73h0.858v2.428H1.979V25.89c-0.093,0.118-0.199,0.206-0.319,0.263
	c-0.12,0.058-0.253,0.086-0.399,0.086c-0.361,0-0.661-0.123-0.901-0.367C0.12,25.626,0,25.319,0,24.947
	c0-0.364,0.117-0.671,0.351-0.919c0.234-0.249,0.524-0.373,0.871-0.373c0.157,0,0.295,0.024,0.416,0.075
	c0.12,0.05,0.233,0.13,0.34,0.241V23.73L1.979,23.73z M0.896,24.947c0,0.157,0.054,0.289,0.161,0.396
	c0.107,0.107,0.238,0.161,0.392,0.161c0.153,0,0.284-0.054,0.392-0.161C1.946,25.236,2,25.106,2,24.952
	c0-0.157-0.054-0.289-0.161-0.396c-0.107-0.107-0.238-0.161-0.392-0.161c-0.154,0-0.284,0.055-0.392,0.164
	c-0.107,0.109-0.161,0.24-0.161,0.394V24.947L0.896,24.947z M5.324,23.799l-0.29,0.558c-0.082-0.036-0.162-0.064-0.238-0.086
	c-0.077-0.021-0.153-0.032-0.228-0.032c-0.079,0-0.142,0.018-0.19,0.052c-0.048,0.033-0.072,0.077-0.072,0.131
	c0,0.047,0.025,0.082,0.075,0.107c0.05,0.024,0.115,0.046,0.193,0.064c0.042,0.011,0.087,0.022,0.134,0.034
	c0.047,0.013,0.095,0.026,0.145,0.041c0.136,0.042,0.261,0.112,0.375,0.208c0.114,0.097,0.171,0.252,0.171,0.467
	c0,0.275-0.104,0.495-0.314,0.659c-0.209,0.165-0.489,0.247-0.839,0.247c-0.128,0-0.254-0.013-0.375-0.037
	c-0.122-0.025-0.241-0.063-0.359-0.113c-0.039-0.018-0.08-0.036-0.121-0.056s-0.082-0.042-0.121-0.067l0.311-0.611
	c0.036,0.028,0.072,0.053,0.11,0.072s0.074,0.038,0.11,0.057c0.082,0.039,0.164,0.069,0.244,0.091
	c0.081,0.021,0.155,0.032,0.223,0.032c0.079,0,0.143-0.018,0.193-0.054c0.05-0.035,0.075-0.08,0.075-0.134
	c0-0.067-0.031-0.116-0.094-0.145s-0.14-0.054-0.233-0.075c-0.032-0.007-0.066-0.015-0.102-0.021S4.036,25.172,4,25.162
	c-0.136-0.04-0.26-0.104-0.373-0.19c-0.113-0.088-0.169-0.241-0.169-0.459c0-0.265,0.098-0.475,0.292-0.63
	c0.194-0.155,0.457-0.233,0.785-0.233c0.089,0,0.172,0.004,0.249,0.011c0.077,0.008,0.151,0.02,0.223,0.038
	c0.054,0.014,0.105,0.03,0.156,0.048c0.05,0.019,0.104,0.038,0.161,0.06V23.799L5.324,23.799z M7.736,23.799l-0.29,0.558
	c-0.083-0.036-0.162-0.064-0.238-0.086c-0.077-0.021-0.153-0.032-0.228-0.032c-0.079,0-0.142,0.018-0.19,0.052
	c-0.048,0.033-0.072,0.077-0.072,0.131c0,0.047,0.025,0.082,0.075,0.107c0.05,0.024,0.114,0.046,0.193,0.064
	c0.042,0.011,0.087,0.022,0.134,0.034c0.047,0.013,0.095,0.026,0.145,0.041C7.4,24.71,7.525,24.781,7.64,24.876
	c0.115,0.097,0.171,0.252,0.171,0.467c0,0.275-0.104,0.495-0.313,0.659c-0.209,0.165-0.489,0.247-0.839,0.247
	c-0.129,0-0.254-0.013-0.375-0.037c-0.121-0.025-0.241-0.063-0.359-0.113c-0.04-0.018-0.08-0.036-0.121-0.056
	s-0.082-0.042-0.121-0.067l0.311-0.611c0.036,0.028,0.072,0.053,0.11,0.072c0.037,0.02,0.074,0.038,0.109,0.057
	c0.083,0.039,0.164,0.069,0.244,0.091s0.155,0.032,0.223,0.032c0.079,0,0.143-0.018,0.193-0.054c0.05-0.035,0.075-0.08,0.075-0.134
	c0-0.067-0.031-0.116-0.094-0.145s-0.141-0.054-0.233-0.075c-0.032-0.007-0.066-0.015-0.102-0.021
	c-0.036-0.007-0.071-0.016-0.107-0.026c-0.136-0.04-0.26-0.104-0.373-0.19c-0.113-0.088-0.169-0.241-0.169-0.459
	c0-0.265,0.098-0.475,0.292-0.63c0.195-0.155,0.457-0.233,0.786-0.233c0.089,0,0.172,0.004,0.249,0.011
	c0.077,0.008,0.151,0.02,0.223,0.038c0.054,0.014,0.105,0.03,0.155,0.048c0.05,0.019,0.104,0.038,0.161,0.06V23.799L7.736,23.799z
	 M9.103,23.73v2.428H8.246V23.73H9.103L9.103,23.73z M8.192,22.796c0-0.132,0.047-0.244,0.142-0.337s0.208-0.14,0.34-0.14
	c0.136,0,0.25,0.047,0.343,0.14s0.139,0.207,0.139,0.343c0,0.133-0.046,0.246-0.139,0.341s-0.208,0.142-0.343,0.142
	c-0.132,0-0.246-0.047-0.34-0.142s-0.142-0.208-0.142-0.341V22.796L8.192,22.796z"/>
<path fill="#0095DA" d="M12.695,26.158v-1.238c0-0.213-0.043-0.372-0.128-0.475c-0.086-0.104-0.218-0.155-0.396-0.155
	c-0.097,0-0.186,0.02-0.268,0.059c-0.083,0.039-0.152,0.095-0.209,0.167c-0.041,0.055-0.071,0.119-0.089,0.192
	c-0.018,0.074-0.028,0.195-0.028,0.364v1.086H11.23v-1.238c0-0.213-0.043-0.372-0.128-0.475c-0.086-0.104-0.218-0.155-0.396-0.155
	c-0.096,0-0.187,0.02-0.27,0.059c-0.084,0.039-0.154,0.095-0.21,0.167c-0.04,0.054-0.069,0.115-0.086,0.186
	c-0.018,0.071-0.026,0.194-0.026,0.371v1.086H9.766v-2.104h0.352v0.325c0.087-0.135,0.192-0.235,0.313-0.302
	c0.122-0.065,0.26-0.099,0.418-0.099c0.17,0,0.315,0.036,0.435,0.109c0.119,0.072,0.21,0.179,0.271,0.318
	c0.09-0.144,0.197-0.251,0.32-0.322c0.124-0.07,0.267-0.105,0.429-0.105c0.234,0,0.417,0.066,0.549,0.197
	c0.132,0.132,0.197,0.316,0.197,0.55v1.432H12.695L12.695,26.158z M13.693,23.041c0-0.072,0.025-0.134,0.076-0.186
	c0.053-0.051,0.114-0.076,0.188-0.076c0.072,0,0.135,0.025,0.186,0.078c0.051,0.052,0.077,0.114,0.077,0.188
	c0,0.072-0.025,0.133-0.076,0.184c-0.05,0.051-0.112,0.076-0.187,0.076c-0.073,0-0.135-0.025-0.188-0.076
	C13.719,23.178,13.693,23.116,13.693,23.041L13.693,23.041z M13.777,26.158v-2.104h0.363v2.104H13.777L13.777,26.158z
	 M14.918,26.158v-3.563h0.369v3.563H14.918L14.918,26.158z M17.65,25.126c0-0.238-0.065-0.43-0.195-0.574
	c-0.129-0.145-0.298-0.217-0.507-0.217c-0.216,0-0.384,0.066-0.505,0.2c-0.122,0.133-0.182,0.319-0.182,0.559
	c0,0.254,0.061,0.45,0.182,0.588c0.122,0.138,0.295,0.207,0.52,0.207c0.214,0,0.383-0.066,0.504-0.201
	C17.589,25.554,17.65,25.367,17.65,25.126L17.65,25.126z M17.999,24.054v2.104H17.65v-0.382c-0.084,0.154-0.193,0.271-0.324,0.352
	c-0.131,0.08-0.277,0.12-0.439,0.12c-0.303,0-0.545-0.104-0.73-0.312c-0.184-0.207-0.276-0.482-0.276-0.824
	c0-0.346,0.089-0.621,0.269-0.826s0.42-0.307,0.721-0.307c0.176,0,0.328,0.039,0.457,0.118c0.13,0.079,0.234,0.196,0.314,0.353
	v-0.396H17.999L17.999,24.054z M18.773,24.351h-0.386v-0.297h0.386v-0.849h0.368v0.849h0.386v0.297h-0.386v1.807h-0.368V24.351
	L18.773,24.351z M21.43,24.869c-0.013-0.186-0.074-0.328-0.186-0.429c-0.11-0.101-0.264-0.151-0.456-0.151
	c-0.175,0-0.321,0.053-0.437,0.158c-0.117,0.104-0.185,0.245-0.203,0.422H21.43L21.43,24.869z M21.815,25.161h-1.667v0.032
	c0,0.226,0.064,0.407,0.193,0.546s0.297,0.208,0.504,0.208c0.141,0,0.268-0.038,0.381-0.114c0.114-0.076,0.215-0.19,0.302-0.344
	l0.273,0.184c-0.105,0.191-0.241,0.334-0.404,0.431c-0.164,0.096-0.354,0.145-0.571,0.145c-0.319,0-0.578-0.105-0.776-0.316
	c-0.198-0.212-0.296-0.489-0.296-0.833c0-0.329,0.098-0.599,0.293-0.81c0.197-0.209,0.449-0.314,0.758-0.314
	c0.311,0,0.557,0.1,0.738,0.299c0.182,0.2,0.272,0.472,0.272,0.816V25.161L21.815,25.161z"/>
<path fill="#A6CE39" d="M0.81,27.979c-0.037-0.031-0.077-0.054-0.12-0.068c-0.043-0.014-0.086-0.021-0.131-0.022
	c-0.007,0-0.015,0-0.021,0.001c-0.007,0-0.014,0.001-0.022,0.001c-0.092,0.011-0.172,0.052-0.241,0.126
	c-0.069,0.073-0.099,0.172-0.089,0.297c0,0.002,0,0.004,0.001,0.006c0,0.002,0,0.004,0.001,0.005c-0.001,0.003-0.001,0.005,0,0.007
	s0,0.004,0.001,0.006c0.014,0.093,0.058,0.168,0.13,0.224c0.073,0.057,0.153,0.085,0.24,0.086c0.02,0,0.04-0.002,0.06-0.006
	c0.02-0.003,0.04-0.008,0.06-0.014c0.023-0.008,0.045-0.019,0.068-0.031s0.044-0.028,0.064-0.047l0.002,0.137
	c-0.044,0.022-0.088,0.038-0.131,0.047c-0.043,0.01-0.084,0.015-0.124,0.015c-0.127,0.001-0.234-0.04-0.321-0.122
	c-0.087-0.081-0.14-0.18-0.159-0.296c-0.001-0.007-0.002-0.015-0.003-0.022c-0.001-0.007-0.001-0.015-0.001-0.022
	c-0.005-0.143,0.033-0.256,0.117-0.339c0.083-0.084,0.18-0.135,0.29-0.155c0.016-0.003,0.033-0.006,0.049-0.008
	c0.017-0.001,0.033-0.002,0.05-0.002c0.04,0,0.079,0.004,0.118,0.013c0.04,0.009,0.076,0.022,0.11,0.041L0.81,27.979L0.81,27.979z
	 M1.846,28.597c-0.032-0.04-0.058-0.083-0.079-0.127c-0.021-0.045-0.035-0.091-0.042-0.138c-0.002-0.012-0.003-0.024-0.004-0.037
	s-0.002-0.024-0.002-0.036c0-0.037,0.004-0.074,0.012-0.111c0.008-0.037,0.021-0.073,0.039-0.109
	c0.038-0.07,0.088-0.128,0.151-0.171c0.063-0.044,0.13-0.072,0.201-0.087c0.016-0.003,0.032-0.006,0.049-0.008
	c0.016-0.001,0.032-0.002,0.048-0.002c0.047,0,0.093,0.007,0.138,0.02c0.046,0.014,0.089,0.034,0.129,0.062
	c0.06,0.041,0.107,0.091,0.142,0.15s0.056,0.123,0.066,0.188c0.001,0.005,0.001,0.01,0.002,0.014c0,0.005,0.001,0.01,0.001,0.015
	c0.006,0.056,0.003,0.11-0.008,0.165c-0.011,0.054-0.031,0.103-0.058,0.146c-0.037,0.061-0.083,0.107-0.136,0.142
	s-0.11,0.058-0.168,0.069c-0.018,0.003-0.036,0.005-0.053,0.007S2.239,28.75,2.221,28.75c-0.073,0-0.143-0.014-0.21-0.041
	C1.944,28.683,1.889,28.646,1.846,28.597L1.846,28.597L1.846,28.597z M2.109,27.89c-0.09,0.022-0.162,0.075-0.215,0.159
	c-0.054,0.083-0.072,0.175-0.057,0.276c0.001,0.011,0.002,0.021,0.006,0.032c0.002,0.011,0.006,0.021,0.009,0.033
	c0.024,0.071,0.066,0.129,0.125,0.171c0.059,0.042,0.119,0.069,0.181,0.082c0.011,0.002,0.022,0.003,0.034,0.005
	c0.012,0.001,0.023,0.001,0.034,0.001c0.016,0,0.031-0.001,0.045-0.003c0.015-0.003,0.028-0.006,0.041-0.01
	c0.08-0.029,0.146-0.076,0.202-0.142c0.055-0.064,0.082-0.148,0.08-0.251c0-0.004-0.001-0.007-0.001-0.01s-0.001-0.006-0.001-0.008
	c-0.014-0.094-0.056-0.176-0.126-0.245c-0.07-0.069-0.155-0.104-0.255-0.104c-0.016,0-0.032,0.001-0.049,0.003
	s-0.035,0.006-0.053,0.011V27.89L2.109,27.89z M4.412,27.762l0.201,0.972H4.484l-0.106-0.618l-0.283,0.638L3.82,28.116l-0.11,0.618
	H3.583l0.202-0.972l0.311,0.736L4.412,27.762L4.412,27.762z M5.583,27.792h0.177c0.096,0,0.173,0.018,0.23,0.053
	c0.057,0.034,0.092,0.094,0.104,0.178c0.002,0.01,0.003,0.02,0.004,0.03s0.001,0.022,0.001,0.034
	c0.002,0.066-0.026,0.126-0.083,0.18c-0.058,0.053-0.141,0.079-0.249,0.079c-0.011,0-0.022,0-0.035-0.001s-0.024-0.002-0.036-0.002
	l0.002,0.391H5.572L5.583,27.792L5.583,27.792z M5.691,28.243c0.005,0.002,0.01,0.003,0.016,0.004c0.005,0,0.01,0,0.017,0
	c0.005,0.001,0.01,0.002,0.015,0.002c0.005,0,0.01,0,0.015,0c0.001,0,0.001,0,0.001,0c0.001,0,0.001,0,0.002,0
	c0.065,0,0.122-0.016,0.171-0.047c0.049-0.03,0.068-0.081,0.057-0.152c-0.01-0.064-0.041-0.105-0.092-0.122
	s-0.116-0.025-0.195-0.025L5.691,28.243L5.691,28.243z M6.845,28.734l0.449-0.962l0.445,0.962H7.61l-0.094-0.226H7.085l-0.113,0.226
	H6.845L6.845,28.734z M7.469,28.4l-0.175-0.372L7.126,28.4H7.469L7.469,28.4z M8.664,27.762l0.703,0.736l-0.001-0.706h0.118
	l-0.004,0.98l-0.705-0.745l0.001,0.706H8.659L8.664,27.762L8.664,27.762z M10.403,27.792h0.137l0.231,0.412l0.231-0.412h0.137
	l-0.31,0.529l-0.004,0.412h-0.108l-0.005-0.412L10.403,27.792L10.403,27.792z M12.644,28.489l0.113-0.029
	c0.001,0.004,0.001,0.007,0.001,0.009c0,0.003,0.001,0.005,0.001,0.007c0.008,0.056,0.029,0.098,0.062,0.126
	c0.034,0.029,0.071,0.043,0.111,0.043c0.011,0,0.02-0.001,0.03-0.002c0.01-0.002,0.019-0.004,0.028-0.007
	c0.009-0.003,0.019-0.007,0.027-0.012c0.009-0.004,0.018-0.01,0.026-0.016c0.027-0.018,0.047-0.039,0.059-0.065
	c0.013-0.027,0.018-0.055,0.016-0.083c0.001-0.003,0.001-0.006,0-0.009c0-0.002,0-0.005-0.001-0.007
	c-0.004-0.026-0.015-0.052-0.03-0.075c-0.018-0.024-0.039-0.043-0.068-0.056c-0.018-0.008-0.037-0.016-0.061-0.025
	c-0.024-0.009-0.049-0.02-0.074-0.032c-0.045-0.02-0.086-0.046-0.125-0.077c-0.039-0.031-0.063-0.072-0.07-0.121
	c-0.002-0.012-0.002-0.023-0.002-0.036c0-0.014,0.002-0.026,0.005-0.041c0.012-0.059,0.041-0.105,0.086-0.141
	c0.046-0.035,0.097-0.056,0.151-0.061c0.006,0,0.01-0.001,0.016-0.001c0.004-0.001,0.01-0.001,0.015-0.001
	c0.046,0,0.091,0.01,0.136,0.032c0.043,0.021,0.078,0.056,0.107,0.103l-0.09,0.058c-0.023-0.028-0.046-0.05-0.068-0.063
	c-0.023-0.014-0.045-0.021-0.066-0.025c-0.004,0-0.006,0-0.01,0c-0.003-0.001-0.006-0.001-0.01-0.001
	c-0.033,0-0.063,0.01-0.088,0.03c-0.026,0.021-0.045,0.043-0.055,0.067c-0.004,0.007-0.007,0.015-0.008,0.021
	c-0.002,0.007-0.002,0.014-0.002,0.021c0,0.003,0,0.006,0,0.009c0,0.002,0.001,0.005,0.002,0.007
	c0.005,0.035,0.023,0.063,0.057,0.082c0.032,0.021,0.068,0.039,0.109,0.057c0.006,0.002,0.012,0.004,0.017,0.006
	s0.011,0.004,0.017,0.007c0.025,0.011,0.051,0.022,0.075,0.034c0.024,0.013,0.047,0.027,0.065,0.044
	c0.022,0.02,0.041,0.042,0.055,0.068c0.013,0.025,0.021,0.054,0.026,0.083c0.002,0.011,0.003,0.021,0.003,0.032
	c0.001,0.011,0,0.021,0,0.032c-0.003,0.036-0.012,0.071-0.027,0.106c-0.016,0.034-0.039,0.064-0.07,0.09
	c-0.02,0.017-0.039,0.031-0.061,0.042s-0.043,0.019-0.065,0.023c-0.013,0.003-0.025,0.006-0.038,0.007
	c-0.013,0.002-0.025,0.003-0.039,0.003c-0.066,0-0.127-0.022-0.183-0.066C12.693,28.641,12.658,28.576,12.644,28.489L12.644,28.489
	L12.644,28.489z M14.211,27.792h0.117l0.003,0.833h0.284l-0.002,0.108h-0.402V27.792L14.211,27.792z M15.611,28.597
	c-0.032-0.04-0.059-0.083-0.08-0.127c-0.02-0.045-0.033-0.091-0.041-0.138c-0.002-0.012-0.004-0.024-0.005-0.037
	s-0.001-0.024-0.002-0.036c0-0.037,0.004-0.074,0.012-0.111c0.009-0.037,0.021-0.073,0.038-0.109c0.039-0.07,0.09-0.128,0.152-0.171
	c0.063-0.044,0.13-0.072,0.201-0.087c0.016-0.003,0.031-0.006,0.049-0.008c0.016-0.001,0.031-0.002,0.047-0.002
	c0.047,0,0.094,0.007,0.139,0.02c0.046,0.014,0.089,0.034,0.129,0.062c0.061,0.041,0.107,0.091,0.142,0.15s0.057,0.123,0.067,0.188
	c0,0.005,0,0.01,0.002,0.014c0,0.005,0,0.01,0,0.015c0.007,0.056,0.004,0.11-0.008,0.165c-0.012,0.054-0.031,0.103-0.059,0.146
	c-0.036,0.061-0.082,0.107-0.136,0.142s-0.11,0.058-0.169,0.069c-0.018,0.003-0.035,0.005-0.052,0.007
	c-0.018,0.002-0.034,0.003-0.052,0.003c-0.073,0-0.144-0.014-0.211-0.041C15.709,28.683,15.654,28.646,15.611,28.597L15.611,28.597
	L15.611,28.597z M15.873,27.89c-0.09,0.022-0.16,0.075-0.215,0.159c-0.053,0.083-0.072,0.175-0.057,0.276
	c0.002,0.011,0.004,0.021,0.006,0.032c0.004,0.011,0.007,0.021,0.01,0.033c0.025,0.071,0.066,0.129,0.125,0.171
	s0.119,0.069,0.182,0.082c0.011,0.002,0.021,0.003,0.033,0.005c0.013,0.001,0.023,0.001,0.035,0.001c0.016,0,0.03-0.001,0.045-0.003
	c0.015-0.003,0.028-0.006,0.041-0.01c0.079-0.029,0.146-0.076,0.201-0.142c0.055-0.064,0.082-0.148,0.08-0.251
	c0-0.004-0.001-0.007-0.002-0.01c0-0.003,0-0.006,0-0.008c-0.015-0.094-0.057-0.176-0.127-0.245s-0.154-0.104-0.254-0.104
	c-0.016,0-0.033,0.001-0.05,0.003s-0.034,0.006-0.054,0.011V27.89L15.873,27.89z M18.154,28.372h-0.246l0.004-0.108h0.362
	c0.021,0.135-0.015,0.251-0.105,0.348s-0.201,0.145-0.33,0.145c-0.03,0-0.062-0.003-0.095-0.01c-0.031-0.007-0.064-0.017-0.096-0.03
	c-0.078-0.036-0.141-0.087-0.186-0.152c-0.045-0.066-0.074-0.137-0.087-0.213c-0.001-0.011-0.003-0.021-0.004-0.033
	c-0.001-0.011-0.001-0.022-0.001-0.034c-0.002-0.062,0.006-0.121,0.026-0.179c0.021-0.059,0.051-0.109,0.093-0.154
	c0.043-0.045,0.094-0.082,0.152-0.111c0.058-0.028,0.119-0.045,0.184-0.049c0.004,0,0.01,0,0.014-0.001c0.005,0,0.01,0,0.015,0
	c0.062,0,0.126,0.014,0.19,0.04c0.064,0.027,0.125,0.071,0.183,0.132l-0.075,0.087c-0.038-0.053-0.084-0.093-0.137-0.119
	s-0.107-0.039-0.164-0.039c-0.01,0-0.02,0.001-0.029,0.001c-0.01,0.001-0.02,0.003-0.029,0.004
	c-0.069,0.011-0.133,0.041-0.189,0.091c-0.057,0.049-0.096,0.116-0.116,0.201c-0.005,0.023-0.007,0.048-0.008,0.072
	c-0.001,0.023,0.001,0.047,0.004,0.068c0.015,0.094,0.057,0.172,0.126,0.233s0.146,0.093,0.229,0.093c0.02,0,0.04-0.002,0.061-0.007
	c0.021-0.005,0.041-0.011,0.061-0.02c0.008-0.002,0.016-0.005,0.022-0.009c0.007-0.003,0.015-0.007,0.022-0.011
	c0.039-0.021,0.074-0.054,0.104-0.097C18.139,28.467,18.154,28.421,18.154,28.372L18.154,28.372L18.154,28.372z M19.151,28.734
	l0.448-0.962l0.445,0.962h-0.129l-0.094-0.226h-0.432l-0.112,0.226H19.151L19.151,28.734z M19.775,28.4l-0.175-0.372L19.434,28.4
	H19.775L19.775,28.4z M20.971,27.762l0.703,0.736l-0.002-0.706h0.118l-0.005,0.98l-0.705-0.745l0.002,0.706h-0.117L20.971,27.762
	L20.971,27.762z"/>
<polygon fill-rule="evenodd" clip-rule="evenodd" fill="#0095DA" points="21.79,21.71 19.535,21.71 19.535,21.708 21.787,19.457 
	21.79,19.457 21.79,21.71 "/>
</svg>
