<?xml version="1.0" encoding="utf-8"?>
<!-- Generator: Adobe Illustrator 16.0.0, SVG Export Plug-In . SVG Version: 6.00 Build 0)  -->
<!DOCTYPE svg PUBLIC "-//W3C//DTD SVG 1.1//EN" "http://www.w3.org/Graphics/SVG/1.1/DTD/svg11.dtd">
<svg version="1.1" id="Layer_1" xmlns="http://www.w3.org/2000/svg" xmlns:xlink="http://www.w3.org/1999/xlink" x="0px" y="0px"
	 width="37.732px" height="38.701px" viewBox="0 0 37.732 38.701" enable-background="new 0 0 37.732 38.701" xml:space="preserve">
<path fill-rule="evenodd" clip-rule="evenodd" fill="#94D6DC" d="M0,28.541l6.17-11.054l7.104,2.5l-0.281,2.451l5.176,6.103
	l-6.699-0.102l-1.725-3.152l1.016-2.034l-1.016-1.018l-3.756,6.407L0,28.541L0,28.541z M13.285,0c1.887,0,3.416,1.53,3.416,3.416
	s-1.529,3.415-3.416,3.415c-1.885,0-3.414-1.529-3.414-3.415S11.4,0,13.285,0L13.285,0z M6.02,14.363l-1.094,1.679l13.338,4.694
	l-0.002-0.044l-0.102-0.096L6.02,14.363L6.02,14.363z M4.512,13.16l4.994-7.663l8.178,4.94l0.576,10.207L4.512,13.16L4.512,13.16z"
	/>
<path fill-rule="evenodd" clip-rule="evenodd" fill="#D92282" d="M37.625,28.541l-6.193-11.093l-7.096,2.413l0.295,2.577
	l-5.176,6.103l6.699-0.102l1.727-3.152l-1.018-2.034l1.018-1.018l3.754,6.407L37.625,28.541L37.625,28.541z M23.779,0
	c1.885,0,3.414,1.53,3.414,3.416s-1.529,3.415-3.414,3.415c-1.887,0-3.416-1.529-3.416-3.415S21.893,0,23.779,0L23.779,0z
	 M32.551,13.161l-4.992-7.664l-8.313,5.021l-0.541,9.59l0.004,0.589L32.551,13.161L32.551,13.161z M31.045,14.508l1.094,1.693
	l-13.408,4.56l0.174-0.164L31.045,14.508L31.045,14.508z"/>
<path fill="#D92282" d="M1.004,35.07c0.01,0.254,0.074,0.446,0.195,0.58c0.119,0.133,0.287,0.198,0.504,0.198
	c0.098,0,0.189-0.014,0.273-0.041c0.082-0.027,0.156-0.068,0.221-0.122c0.016-0.014,0.035-0.032,0.061-0.056
	c0.148-0.133,0.277-0.199,0.385-0.199c0.098,0,0.178,0.031,0.242,0.094s0.098,0.14,0.098,0.233c0,0.066-0.018,0.134-0.053,0.201
	c-0.035,0.066-0.088,0.134-0.16,0.203c-0.139,0.131-0.305,0.231-0.5,0.301c-0.195,0.07-0.408,0.106-0.639,0.106
	c-0.467,0-0.838-0.157-1.113-0.472c-0.271-0.314-0.41-0.74-0.41-1.278c0-0.529,0.135-0.946,0.404-1.252s0.639-0.458,1.107-0.458
	c0.471,0,0.846,0.145,1.125,0.432c0.281,0.287,0.422,0.673,0.422,1.157c0,0.143-0.025,0.241-0.076,0.292
	c-0.053,0.054-0.182,0.08-0.387,0.08H2.609H1.004L1.004,35.07z M2.277,34.502c-0.012-0.219-0.07-0.384-0.178-0.499
	c-0.107-0.113-0.262-0.17-0.463-0.17c-0.189,0-0.338,0.057-0.445,0.17c-0.107,0.115-0.17,0.28-0.188,0.499H2.277L2.277,34.502z
	 M3.609,33.81c-0.023-0.035-0.041-0.075-0.055-0.118c-0.014-0.042-0.02-0.087-0.02-0.132c0-0.107,0.039-0.199,0.121-0.275
	c0.08-0.076,0.176-0.115,0.289-0.115c0.078,0,0.15,0.03,0.221,0.09c0.07,0.059,0.146,0.159,0.229,0.301l0.385,0.64l0.377-0.658
	c0.08-0.139,0.154-0.235,0.225-0.29c0.072-0.054,0.15-0.082,0.24-0.082c0.111,0,0.203,0.034,0.277,0.1
	c0.074,0.067,0.111,0.147,0.111,0.243c0,0.058-0.006,0.108-0.018,0.153c-0.012,0.044-0.031,0.084-0.057,0.12l-0.656,1.011
	l0.695,1.077c0.027,0.044,0.049,0.09,0.063,0.137c0.014,0.049,0.021,0.095,0.021,0.141c0,0.106-0.041,0.194-0.121,0.262
	s-0.184,0.101-0.311,0.101c-0.088,0-0.164-0.026-0.232-0.08s-0.146-0.156-0.238-0.31L4.75,35.436l-0.391,0.688
	c-0.086,0.147-0.164,0.249-0.236,0.305c-0.074,0.057-0.156,0.085-0.252,0.085c-0.117,0-0.215-0.036-0.295-0.109
	c-0.078-0.073-0.119-0.163-0.119-0.269c0-0.039,0.01-0.081,0.023-0.127c0.018-0.044,0.039-0.089,0.07-0.135l0.709-1.064L3.609,33.81
	L3.609,33.81z M8.094,33.859c-0.227,0-0.4,0.083-0.523,0.249c-0.121,0.167-0.182,0.406-0.182,0.717c0,0.322,0.063,0.568,0.188,0.738
	c0.125,0.171,0.303,0.256,0.535,0.256c0.219,0,0.389-0.085,0.514-0.256c0.125-0.17,0.188-0.404,0.188-0.702
	c0-0.325-0.063-0.573-0.184-0.746C8.506,33.944,8.328,33.859,8.094,33.859L8.094,33.859z M7.389,36.058v1.231
	c0,0.16-0.035,0.281-0.105,0.36s-0.176,0.118-0.318,0.118c-0.141,0-0.246-0.04-0.318-0.12c-0.07-0.08-0.105-0.2-0.105-0.358V33.65
	c0-0.162,0.035-0.284,0.105-0.365c0.072-0.081,0.18-0.122,0.326-0.122c0.127,0,0.223,0.033,0.287,0.097
	c0.064,0.065,0.102,0.165,0.109,0.302l0.014,0.107c0.094-0.177,0.223-0.313,0.387-0.409c0.168-0.097,0.354-0.144,0.563-0.144
	c0.398,0,0.721,0.157,0.969,0.471c0.248,0.314,0.371,0.728,0.371,1.238c0,0.519-0.123,0.938-0.371,1.26
	c-0.248,0.322-0.566,0.484-0.959,0.484c-0.205,0-0.389-0.044-0.551-0.131C7.631,36.351,7.494,36.224,7.389,36.058L7.389,36.058z
	 M11.721,33.839c-0.244,0-0.432,0.086-0.564,0.26s-0.197,0.42-0.197,0.739c0,0.321,0.064,0.568,0.197,0.743s0.32,0.262,0.564,0.262
	c0.24,0,0.426-0.087,0.559-0.262c0.131-0.175,0.197-0.422,0.197-0.743c0-0.319-0.066-0.565-0.197-0.739
	C12.146,33.925,11.961,33.839,11.721,33.839L11.721,33.839z M11.721,33.109c0.508,0,0.908,0.154,1.201,0.461
	c0.291,0.308,0.438,0.73,0.438,1.268c0,0.539-0.146,0.963-0.438,1.271c-0.293,0.307-0.693,0.461-1.201,0.461
	c-0.51,0-0.91-0.154-1.203-0.461c-0.291-0.308-0.438-0.731-0.438-1.271c0-0.537,0.146-0.96,0.438-1.268
	C10.811,33.264,11.211,33.109,11.721,33.109L11.721,33.109z"/>
<path fill="#94D6DC" d="M35.359,34.675c-0.557-0.132-0.953-0.304-1.188-0.511c-0.236-0.207-0.354-0.484-0.354-0.831
	c0-0.455,0.164-0.815,0.492-1.08c0.328-0.267,0.773-0.399,1.336-0.399c0.492,0,0.906,0.094,1.236,0.282
	c0.332,0.188,0.498,0.414,0.498,0.678c0,0.14-0.049,0.255-0.143,0.345c-0.092,0.09-0.211,0.135-0.354,0.135
	c-0.135,0-0.322-0.093-0.561-0.278c-0.041-0.033-0.072-0.057-0.094-0.073c-0.063-0.049-0.15-0.091-0.262-0.125
	s-0.219-0.051-0.322-0.051c-0.223,0-0.387,0.034-0.498,0.104c-0.109,0.07-0.166,0.173-0.166,0.313c0,0.109,0.051,0.194,0.152,0.254
	c0.102,0.059,0.332,0.129,0.695,0.208l0.369,0.083c0.564,0.124,0.961,0.288,1.189,0.489c0.229,0.202,0.344,0.483,0.344,0.844
	c0,0.504-0.178,0.888-0.533,1.153c-0.355,0.264-0.873,0.396-1.553,0.396c-0.529,0-0.967-0.107-1.314-0.321s-0.521-0.472-0.521-0.774
	c0-0.158,0.051-0.288,0.15-0.388c0.102-0.099,0.229-0.148,0.385-0.148c0.172,0,0.352,0.102,0.535,0.307
	c0.053,0.057,0.092,0.1,0.119,0.127c0.096,0.095,0.205,0.163,0.328,0.207c0.125,0.042,0.281,0.063,0.471,0.063
	c0.234,0,0.416-0.039,0.543-0.117c0.129-0.076,0.191-0.188,0.191-0.328c0-0.188-0.229-0.338-0.686-0.446l-0.029-0.009L35.359,34.675
	L35.359,34.675z"/>
<path fill="#94D6DC" d="M30.5,35.874c0,0.217-0.051,0.38-0.148,0.491c-0.1,0.112-0.246,0.168-0.441,0.168
	c-0.189,0-0.332-0.054-0.426-0.163s-0.143-0.274-0.143-0.496v-4.858c0-0.224,0.049-0.391,0.143-0.5
	c0.094-0.108,0.236-0.163,0.426-0.163c0.195,0,0.342,0.056,0.441,0.168c0.098,0.111,0.148,0.276,0.148,0.495v2.58l1.182-1.333
	c0.117-0.136,0.213-0.225,0.287-0.266c0.072-0.04,0.156-0.062,0.248-0.062c0.146,0,0.273,0.051,0.381,0.149
	c0.109,0.1,0.164,0.215,0.164,0.345c0,0.132-0.111,0.318-0.336,0.562l-0.012,0.013l-0.617,0.657l1.047,1.8
	c0.082,0.135,0.137,0.236,0.16,0.306c0.027,0.068,0.039,0.136,0.039,0.198c0,0.167-0.053,0.303-0.158,0.409s-0.242,0.159-0.41,0.159
	c-0.145,0-0.268-0.03-0.373-0.094c-0.105-0.063-0.195-0.163-0.271-0.298l-0.881-1.575L30.5,35.052V35.874L30.5,35.874z"/>
<path fill="#94D6DC" d="M28.406,33.313c0.084,0.271,0.127,0.578,0.127,0.917c0,0.741-0.201,1.324-0.604,1.747
	s-0.951,0.634-1.65,0.634c-0.701,0-1.252-0.211-1.652-0.634s-0.602-1.006-0.602-1.747c0-0.738,0.201-1.319,0.602-1.742
	c0.227-0.239,0.5-0.41,0.822-0.515l-0.16,2.832l0.002,0.203L28.406,33.313L28.406,33.313z"/>
<path fill="#94D6DC" d="M21.213,31.854c0.697,0,1.246,0.211,1.648,0.634s0.604,1.004,0.604,1.742c0,0.741-0.201,1.324-0.604,1.747
	s-0.951,0.634-1.648,0.634c-0.703,0-1.254-0.211-1.654-0.634s-0.602-1.006-0.602-1.747c0-0.738,0.201-1.319,0.602-1.742
	S20.51,31.854,21.213,31.854L21.213,31.854z M21.211,32.855c-0.336,0-0.594,0.119-0.775,0.357c-0.182,0.239-0.273,0.578-0.273,1.017
	c0,0.441,0.092,0.782,0.273,1.022c0.182,0.239,0.439,0.36,0.775,0.36c0.33,0,0.586-0.121,0.768-0.36
	c0.182-0.24,0.271-0.581,0.271-1.022c0-0.438-0.09-0.777-0.271-1.017C21.797,32.975,21.541,32.855,21.211,32.855L21.211,32.855z
	 M15.23,35.988c0,0.172-0.049,0.307-0.146,0.401c-0.096,0.097-0.23,0.144-0.402,0.144c-0.195,0-0.342-0.054-0.439-0.163
	c-0.096-0.109-0.145-0.275-0.145-0.496v-4.858c0-0.223,0.049-0.387,0.145-0.497c0.098-0.11,0.24-0.166,0.432-0.166
	c0.193,0,0.34,0.056,0.436,0.166s0.145,0.274,0.145,0.497v1.55c0.146-0.234,0.332-0.41,0.553-0.527s0.475-0.177,0.76-0.177
	c0.537,0,0.979,0.223,1.318,0.665s0.512,1.019,0.512,1.729c0,0.703-0.172,1.271-0.512,1.705s-0.785,0.65-1.334,0.65
	c-0.285,0-0.535-0.061-0.746-0.181s-0.404-0.31-0.574-0.572V35.988L15.23,35.988z M16.248,32.893c-0.318,0-0.564,0.116-0.734,0.352
	c-0.172,0.234-0.26,0.57-0.26,1.011c0,0.433,0.086,0.764,0.254,0.991c0.17,0.228,0.412,0.342,0.732,0.342
	c0.313,0,0.555-0.119,0.723-0.357c0.166-0.238,0.25-0.58,0.25-1.024c0-0.409-0.086-0.73-0.258-0.964S16.549,32.893,16.248,32.893
	L16.248,32.893z"/>
<path fill="#D92282" d="M24.828,37.61c0,0.028-0.01,0.052-0.033,0.072c-0.02,0.021-0.047,0.03-0.078,0.03
	c-0.021,0-0.041-0.005-0.059-0.016s-0.039-0.03-0.063-0.059c-0.025-0.032-0.051-0.054-0.072-0.065
	c-0.021-0.011-0.049-0.017-0.078-0.017c-0.063,0-0.107,0.024-0.139,0.073c-0.031,0.05-0.047,0.122-0.047,0.221
	c0,0.091,0.018,0.16,0.049,0.208c0.031,0.049,0.078,0.073,0.139,0.073c0.025,0,0.049-0.005,0.07-0.014
	c0.02-0.009,0.037-0.024,0.057-0.045c0.006-0.008,0.014-0.019,0.025-0.033c0.037-0.054,0.076-0.08,0.115-0.08
	c0.031,0,0.059,0.012,0.08,0.032c0.023,0.021,0.033,0.048,0.033,0.079c0,0.029-0.008,0.058-0.023,0.085
	c-0.014,0.029-0.037,0.057-0.068,0.083c-0.043,0.038-0.088,0.065-0.137,0.083c-0.049,0.019-0.104,0.027-0.162,0.027
	c-0.137,0-0.244-0.045-0.322-0.134S24,38.004,24,37.847c0-0.156,0.039-0.279,0.117-0.368c0.08-0.089,0.189-0.134,0.328-0.134
	c0.105,0,0.195,0.027,0.271,0.081C24.791,37.479,24.828,37.541,24.828,37.61L24.828,37.61z M25.443,37.557
	c-0.07,0-0.125,0.025-0.162,0.075c-0.039,0.051-0.059,0.122-0.059,0.215c0,0.094,0.02,0.165,0.059,0.216
	c0.037,0.051,0.092,0.076,0.162,0.076s0.125-0.025,0.162-0.076c0.039-0.051,0.059-0.122,0.059-0.216c0-0.093-0.02-0.164-0.059-0.215
	C25.568,37.582,25.514,37.557,25.443,37.557L25.443,37.557z M25.443,37.345c0.148,0,0.264,0.045,0.35,0.135
	c0.084,0.089,0.127,0.212,0.127,0.367c0,0.156-0.043,0.279-0.127,0.369c-0.086,0.089-0.201,0.134-0.35,0.134
	c-0.146,0-0.264-0.045-0.348-0.134c-0.084-0.09-0.127-0.213-0.127-0.369c0-0.155,0.043-0.278,0.127-0.367
	C25.18,37.39,25.297,37.345,25.443,37.345L25.443,37.345z M26.846,37.482c0.033-0.045,0.072-0.079,0.117-0.102
	s0.096-0.034,0.15-0.034c0.096,0,0.17,0.027,0.225,0.083c0.057,0.055,0.084,0.13,0.084,0.225v0.54c0,0.047-0.012,0.082-0.031,0.104
	c-0.021,0.022-0.053,0.035-0.094,0.035c-0.039,0-0.07-0.013-0.092-0.036s-0.031-0.059-0.031-0.104v-0.488
	c0-0.046-0.014-0.081-0.037-0.105c-0.025-0.025-0.059-0.038-0.104-0.038c-0.049,0-0.088,0.016-0.115,0.048
	c-0.029,0.031-0.043,0.075-0.043,0.131v0.453c0,0.046-0.012,0.081-0.031,0.104c-0.021,0.023-0.053,0.036-0.094,0.036
	s-0.07-0.013-0.09-0.035c-0.021-0.022-0.031-0.058-0.031-0.104v-0.487c0-0.046-0.012-0.081-0.035-0.105s-0.057-0.037-0.102-0.037
	c-0.049,0-0.088,0.017-0.117,0.047c-0.027,0.032-0.041,0.075-0.041,0.131v0.452c0,0.046-0.012,0.081-0.031,0.104
	c-0.021,0.023-0.053,0.036-0.094,0.036s-0.072-0.013-0.092-0.036c-0.021-0.022-0.031-0.058-0.031-0.104v-0.692
	c0-0.045,0.01-0.08,0.031-0.105c0.02-0.023,0.049-0.035,0.086-0.035s0.064,0.01,0.084,0.029c0.021,0.021,0.033,0.051,0.037,0.09
	c0.033-0.045,0.07-0.078,0.115-0.102c0.043-0.022,0.092-0.034,0.146-0.034c0.059,0,0.109,0.012,0.15,0.034
	C26.779,37.401,26.816,37.436,26.846,37.482L26.846,37.482z M28.086,37.563c-0.064,0-0.115,0.024-0.15,0.072
	c-0.037,0.049-0.055,0.119-0.055,0.208c0,0.094,0.02,0.165,0.055,0.215c0.037,0.05,0.088,0.074,0.156,0.074
	c0.063,0,0.113-0.024,0.148-0.074c0.037-0.05,0.055-0.117,0.055-0.204c0-0.095-0.018-0.167-0.053-0.217
	C28.205,37.587,28.154,37.563,28.086,37.563L28.086,37.563z M27.881,38.201v0.356c0,0.048-0.01,0.082-0.029,0.105
	c-0.021,0.023-0.053,0.034-0.094,0.034s-0.07-0.012-0.092-0.035c-0.02-0.023-0.031-0.058-0.031-0.104v-1.056
	c0-0.047,0.012-0.082,0.031-0.105c0.021-0.023,0.053-0.035,0.094-0.035c0.037,0,0.064,0.009,0.084,0.027s0.029,0.048,0.033,0.088
	l0.004,0.031c0.025-0.052,0.063-0.091,0.111-0.119c0.049-0.027,0.102-0.042,0.164-0.042c0.115,0,0.209,0.046,0.281,0.137
	c0.07,0.092,0.107,0.212,0.107,0.359c0,0.151-0.037,0.273-0.107,0.366c-0.072,0.093-0.166,0.141-0.279,0.141
	c-0.061,0-0.113-0.013-0.16-0.039C27.951,38.286,27.912,38.249,27.881,38.201L27.881,38.201z M29.244,37.855
	c-0.041,0.02-0.088,0.035-0.143,0.046c-0.053,0.012-0.08,0.018-0.082,0.018c-0.043,0.014-0.074,0.028-0.092,0.048
	S28.9,38.012,28.9,38.045c0,0.036,0.012,0.064,0.035,0.084c0.023,0.021,0.057,0.03,0.098,0.03c0.063,0,0.115-0.021,0.152-0.059
	c0.039-0.039,0.059-0.091,0.059-0.156V37.855L29.244,37.855z M29.484,37.61v0.533c0,0.02,0.002,0.041,0.006,0.066
	c0.002,0.024,0.004,0.04,0.004,0.045c0,0.03-0.01,0.054-0.029,0.07c-0.018,0.018-0.045,0.025-0.078,0.025
	c-0.047,0-0.082-0.012-0.104-0.036c-0.023-0.023-0.033-0.062-0.035-0.113c-0.031,0.049-0.072,0.086-0.123,0.111
	c-0.053,0.026-0.111,0.038-0.18,0.038c-0.09,0-0.16-0.025-0.209-0.076s-0.074-0.123-0.074-0.215c0-0.087,0.02-0.153,0.063-0.198
	c0.043-0.046,0.113-0.08,0.215-0.101c0.037-0.009,0.086-0.016,0.146-0.023c0.059-0.007,0.098-0.014,0.115-0.02
	c0.014-0.005,0.023-0.012,0.031-0.024c0.006-0.012,0.008-0.027,0.008-0.046c0-0.038-0.012-0.065-0.035-0.082
	c-0.023-0.016-0.063-0.024-0.117-0.024c-0.029,0-0.057,0.004-0.08,0.012c-0.023,0.009-0.045,0.021-0.063,0.036
	c-0.008,0.005-0.016,0.015-0.029,0.029c-0.039,0.043-0.076,0.064-0.111,0.064c-0.029,0-0.053-0.01-0.072-0.03
	c-0.02-0.02-0.029-0.044-0.029-0.072c0-0.063,0.037-0.118,0.109-0.164c0.072-0.048,0.16-0.071,0.266-0.071
	c0.133,0,0.232,0.023,0.303,0.068C29.449,37.459,29.484,37.524,29.484,37.61L29.484,37.61z M29.951,38.194
	c0,0.046-0.01,0.081-0.031,0.104c-0.021,0.023-0.053,0.036-0.096,0.036c-0.041,0-0.072-0.013-0.094-0.036
	c-0.02-0.022-0.031-0.058-0.031-0.104v-0.692c0-0.047,0.012-0.082,0.031-0.105c0.021-0.023,0.053-0.035,0.094-0.035
	c0.037,0,0.064,0.009,0.084,0.027s0.029,0.048,0.033,0.088l0.002,0.031c0.031-0.053,0.072-0.093,0.121-0.121
	c0.049-0.027,0.104-0.042,0.166-0.042c0.102,0,0.18,0.028,0.23,0.084c0.053,0.056,0.078,0.139,0.078,0.249v0.517
	c0,0.046-0.01,0.081-0.031,0.104c-0.02,0.023-0.053,0.036-0.094,0.036s-0.074-0.013-0.094-0.036
	c-0.021-0.022-0.031-0.058-0.031-0.104V37.75c0-0.067-0.012-0.115-0.035-0.144c-0.021-0.029-0.059-0.044-0.111-0.044
	c-0.059,0-0.105,0.019-0.141,0.054c-0.033,0.035-0.051,0.083-0.051,0.145V38.194L29.951,38.194z M30.711,37.549
	c-0.004-0.011-0.006-0.021-0.008-0.033c-0.002-0.011-0.004-0.021-0.004-0.033c0-0.035,0.012-0.063,0.037-0.087
	c0.023-0.022,0.053-0.034,0.088-0.034c0.033,0,0.061,0.009,0.082,0.026c0.02,0.019,0.035,0.048,0.047,0.088l0.172,0.58l0.17-0.584
	c0.01-0.038,0.025-0.067,0.045-0.085c0.021-0.019,0.045-0.027,0.076-0.027c0.037,0,0.066,0.01,0.09,0.029
	c0.021,0.02,0.033,0.047,0.033,0.08c0,0.01-0.002,0.021-0.004,0.032s-0.006,0.025-0.012,0.04l-0.326,0.944
	c-0.025,0.073-0.061,0.127-0.104,0.161s-0.098,0.051-0.166,0.051c-0.057,0-0.098-0.008-0.123-0.024
	c-0.025-0.018-0.039-0.043-0.039-0.08c0-0.03,0.008-0.053,0.025-0.068c0.016-0.016,0.043-0.025,0.082-0.031
	c0.035-0.006,0.063-0.015,0.08-0.029c0.016-0.014,0.027-0.037,0.037-0.068L31,38.359L30.711,37.549L30.711,37.549z M32.504,37.941
	c-0.117-0.028-0.201-0.064-0.252-0.108c-0.049-0.044-0.074-0.103-0.074-0.175c0-0.097,0.035-0.173,0.104-0.229
	c0.07-0.057,0.164-0.085,0.283-0.085c0.104,0,0.191,0.021,0.262,0.06c0.07,0.04,0.104,0.088,0.104,0.144
	c0,0.029-0.01,0.054-0.029,0.072c-0.02,0.02-0.045,0.029-0.074,0.029s-0.068-0.02-0.119-0.059c-0.008-0.008-0.016-0.013-0.02-0.017
	c-0.014-0.01-0.031-0.019-0.055-0.025c-0.023-0.008-0.047-0.011-0.068-0.011c-0.047,0-0.082,0.007-0.105,0.021
	s-0.035,0.036-0.035,0.066c0,0.022,0.012,0.041,0.033,0.054c0.021,0.012,0.07,0.027,0.146,0.043l0.078,0.019
	c0.119,0.025,0.203,0.061,0.25,0.104c0.049,0.042,0.072,0.102,0.072,0.178c0,0.106-0.037,0.188-0.111,0.243
	c-0.076,0.056-0.186,0.084-0.328,0.084c-0.111,0-0.205-0.022-0.277-0.067c-0.074-0.046-0.109-0.1-0.109-0.164
	c0-0.033,0.01-0.062,0.031-0.082s0.049-0.031,0.08-0.031c0.037,0,0.074,0.021,0.113,0.064c0.012,0.013,0.02,0.021,0.025,0.027
	c0.021,0.021,0.043,0.034,0.07,0.043c0.025,0.01,0.059,0.014,0.098,0.014c0.051,0,0.088-0.009,0.115-0.024
	c0.027-0.017,0.041-0.04,0.041-0.069c0-0.04-0.049-0.072-0.145-0.095L32.6,37.963L32.504,37.941L32.504,37.941z M33.172,37.169
	c0-0.048,0.012-0.082,0.031-0.105c0.021-0.023,0.053-0.035,0.096-0.035c0.041,0,0.072,0.012,0.094,0.035s0.031,0.058,0.031,0.105
	v1.025c0,0.046-0.01,0.081-0.031,0.104c-0.021,0.023-0.053,0.036-0.094,0.036c-0.043,0-0.074-0.013-0.096-0.036
	c-0.02-0.022-0.031-0.058-0.031-0.104V37.169L33.172,37.169z M34.072,37.557c-0.07,0-0.125,0.025-0.162,0.075
	c-0.039,0.051-0.059,0.122-0.059,0.215c0,0.094,0.02,0.165,0.059,0.216c0.037,0.051,0.092,0.076,0.162,0.076
	s0.125-0.025,0.162-0.076c0.039-0.051,0.059-0.122,0.059-0.216c0-0.093-0.02-0.164-0.059-0.215
	C34.197,37.582,34.143,37.557,34.072,37.557L34.072,37.557z M34.074,37.345c0.146,0,0.262,0.045,0.348,0.135
	c0.084,0.089,0.127,0.212,0.127,0.367c0,0.156-0.043,0.279-0.127,0.369c-0.086,0.089-0.201,0.134-0.348,0.134
	c-0.148,0-0.266-0.045-0.35-0.134c-0.084-0.09-0.127-0.213-0.127-0.369c0-0.155,0.043-0.278,0.127-0.367
	C33.809,37.39,33.926,37.345,34.074,37.345L34.074,37.345z M34.92,37.833c0,0.089,0.018,0.156,0.053,0.203
	c0.037,0.047,0.086,0.071,0.152,0.071s0.117-0.024,0.152-0.071s0.051-0.116,0.051-0.207c0-0.085-0.018-0.151-0.053-0.198
	c-0.037-0.047-0.088-0.071-0.154-0.071c-0.064,0-0.113,0.024-0.148,0.072S34.92,37.746,34.92,37.833L34.92,37.833z M35.328,38.185
	c-0.025,0.045-0.061,0.079-0.104,0.101c-0.041,0.021-0.094,0.032-0.158,0.032c-0.121,0-0.219-0.043-0.291-0.13
	c-0.074-0.086-0.109-0.202-0.109-0.346c0-0.152,0.035-0.273,0.107-0.362c0.07-0.09,0.168-0.135,0.289-0.135
	c0.064,0,0.117,0.013,0.162,0.037c0.045,0.023,0.082,0.061,0.109,0.11v-0.017c0-0.034,0.012-0.063,0.031-0.083
	c0.021-0.021,0.051-0.031,0.086-0.031c0.041,0,0.072,0.012,0.092,0.034c0.02,0.023,0.029,0.059,0.029,0.106v0.753
	c0,0.163-0.035,0.277-0.107,0.346c-0.07,0.066-0.189,0.101-0.359,0.101c-0.109,0-0.201-0.02-0.27-0.06
	c-0.07-0.04-0.105-0.089-0.105-0.148c0-0.032,0.012-0.059,0.033-0.08s0.049-0.031,0.082-0.031c0.018,0,0.033,0.003,0.049,0.009
	c0.014,0.007,0.035,0.021,0.061,0.042l0.004,0.003c0.053,0.044,0.107,0.066,0.16,0.066c0.078,0,0.131-0.018,0.164-0.05
	c0.029-0.034,0.045-0.095,0.045-0.184V38.185L35.328,38.185z M36.322,37.855c-0.041,0.02-0.09,0.035-0.143,0.046
	c-0.053,0.012-0.08,0.018-0.082,0.018c-0.045,0.014-0.074,0.028-0.092,0.048s-0.027,0.045-0.027,0.078
	c0,0.036,0.012,0.064,0.035,0.084c0.023,0.021,0.055,0.03,0.098,0.03c0.063,0,0.113-0.021,0.152-0.059
	c0.039-0.039,0.059-0.091,0.059-0.156V37.855L36.322,37.855z M36.563,37.61v0.533c0,0.02,0.002,0.041,0.004,0.066
	c0.004,0.024,0.006,0.04,0.006,0.045c0,0.03-0.01,0.054-0.029,0.07c-0.02,0.018-0.045,0.025-0.08,0.025
	c-0.047,0-0.08-0.012-0.102-0.036c-0.023-0.023-0.033-0.062-0.035-0.113c-0.031,0.049-0.072,0.086-0.125,0.111
	c-0.051,0.026-0.109,0.038-0.178,0.038c-0.09,0-0.16-0.025-0.209-0.076c-0.051-0.051-0.076-0.123-0.076-0.215
	c0-0.087,0.021-0.153,0.064-0.198c0.041-0.046,0.113-0.08,0.213-0.101c0.039-0.009,0.088-0.016,0.148-0.023
	c0.059-0.007,0.098-0.014,0.115-0.02c0.014-0.005,0.023-0.012,0.029-0.024c0.008-0.012,0.01-0.027,0.01-0.046
	c0-0.038-0.012-0.065-0.035-0.082c-0.023-0.016-0.063-0.024-0.117-0.024c-0.029,0-0.057,0.004-0.08,0.012
	c-0.023,0.009-0.045,0.021-0.064,0.036c-0.006,0.005-0.014,0.015-0.027,0.029c-0.039,0.043-0.076,0.064-0.111,0.064
	c-0.029,0-0.053-0.01-0.072-0.03c-0.02-0.02-0.029-0.044-0.029-0.072c0-0.063,0.037-0.118,0.109-0.164
	c0.072-0.048,0.16-0.071,0.266-0.071c0.131,0,0.232,0.023,0.301,0.068C36.527,37.459,36.563,37.524,36.563,37.61L36.563,37.61z
	 M37.029,38.194c0,0.046-0.012,0.081-0.031,0.104c-0.021,0.023-0.053,0.036-0.096,0.036c-0.041,0-0.072-0.013-0.094-0.036
	c-0.021-0.022-0.031-0.058-0.031-0.104v-0.692c0-0.047,0.01-0.082,0.031-0.105c0.02-0.023,0.051-0.035,0.094-0.035
	c0.037,0,0.064,0.009,0.084,0.027c0.018,0.019,0.029,0.048,0.031,0.088l0.004,0.031c0.031-0.053,0.072-0.093,0.121-0.121
	c0.049-0.027,0.104-0.042,0.164-0.042c0.104,0,0.18,0.028,0.232,0.084s0.078,0.139,0.078,0.249v0.517
	c0,0.046-0.01,0.081-0.031,0.104c-0.021,0.023-0.053,0.036-0.096,0.036c-0.041,0-0.072-0.013-0.092-0.036
	c-0.021-0.022-0.031-0.058-0.031-0.104V37.75c0-0.067-0.012-0.115-0.035-0.144c-0.023-0.029-0.061-0.044-0.111-0.044
	c-0.059,0-0.105,0.019-0.141,0.054s-0.051,0.083-0.051,0.145V38.194L37.029,38.194z"/>
<path fill-rule="evenodd" clip-rule="evenodd" fill="#D92282" d="M28.502,32.694l0.246,0.381L25.732,34.1l0.039-0.037L28.502,32.694
	L28.502,32.694z M28.84,32.391l-1.123-1.723l-1.867,1.129l-0.121,2.155v0.133L28.84,32.391L28.84,32.391z"/>
</svg>
