<?xml version="1.0" encoding="utf-8"?>
<!-- Generator: Adobe Illustrator 16.0.0, SVG Export Plug-In . SVG Version: 6.00 Build 0)  -->
<!DOCTYPE svg PUBLIC "-//W3C//DTD SVG 1.1//EN" "http://www.w3.org/Graphics/SVG/1.1/DTD/svg11.dtd">
<svg version="1.1" id="Layer_1" xmlns="http://www.w3.org/2000/svg" xmlns:xlink="http://www.w3.org/1999/xlink" x="0px" y="0px"
	 width="21.785px" height="26.084px" viewBox="0 0 21.785 26.084" enable-background="new 0 0 21.785 26.084" xml:space="preserve">
<path fill-rule="evenodd" clip-rule="evenodd" fill="#FFFFFF" d="M7.321,5.333C7.465,5.38,7.587,5.467,7.766,5.518
	c0.152,0.043,0.375,0.091,0.56,0.106c1.021,0.082,1.975-0.247,2.377-0.878C10.063,4.694,7.54,5.081,7.321,5.333L7.321,5.333z"/>
<path fill-rule="evenodd" clip-rule="evenodd" fill="#FFFFFF" d="M3.308,5.703c0.188-0.104,0.524-0.38,0.738-0.524
	c0.255-0.172,0.515-0.308,0.799-0.451c0.278-0.14,0.569-0.268,0.857-0.384S6.33,4.139,6.603,4.017l0.112-0.535
	C6.814,3.044,6.453,2.44,6.244,2.233c-0.245-0.241-0.777-0.57-1.246-0.608L4.686,1.6c-0.37-0.03-0.564,0.143-0.953,0.112
	l-0.125-0.01C3.195,1.669,2.853,1.54,2.528,1.418c-0.175-0.065-0.314-0.126-0.472-0.2c-0.127-0.06-0.343-0.185-0.467-0.224
	c0.03,0.048,0.39,0.293,0.471,0.356c0.166,0.131,0.293,0.255,0.449,0.394C2.811,2.014,3.07,2.299,3.214,2.697
	c0.118,0.324,0.107,1.005,0.07,1.473C3.254,4.543,3.22,5.475,3.308,5.703L3.308,5.703z"/>
<path fill-rule="evenodd" clip-rule="evenodd" fill="#A3238E" d="M3.333,5.915c0.053,0.354,0.353,1.364,0.548,1.533
	C3.935,7.417,4.44,6.894,4.547,6.793c0.219-0.208,0.476-0.441,0.73-0.6c0.354-0.222,1.274-0.846,1.691-0.909
	c-0.008-0.042-0.248-0.335-0.3-0.443c-0.076-0.16-0.115-0.393-0.096-0.637C5.926,4.454,5.44,4.608,4.831,4.916
	C4.45,5.107,3.566,5.62,3.333,5.915L3.333,5.915z"/>
<path fill-rule="evenodd" clip-rule="evenodd" fill="#FFCB05" d="M3.971,7.622C4.084,7.884,4.888,8.85,5.145,8.933
	C5.271,8.576,6.524,7.41,6.854,7.157c0.338-0.259,0.662-0.467,1.002-0.716C8.182,6.202,8.62,6.018,8.919,5.797
	c-0.385-0.031-0.609-0.001-1-0.08c-0.249-0.05-0.66-0.204-0.79-0.336c-0.546,0.235-1.31,0.562-1.736,0.924
	C4.967,6.667,4.273,7.147,3.971,7.622L3.971,7.622z"/>
<path fill-rule="evenodd" clip-rule="evenodd" fill="#A6CE39" d="M1.759,8.807L1.735,9.099c-0.031,0.387,0.215,1.649,0.38,1.792
	c0.037-0.459,0.476-1.492,0.663-1.82C3.121,8.473,3.36,8.113,3.763,7.605c-0.107-0.25-0.259-0.458-0.342-0.737
	C3.374,6.713,3.188,6.201,3.198,6.03C2.967,6.159,2.419,6.895,2.267,7.171C2.016,7.629,1.813,8.117,1.759,8.807L1.759,8.807z"/>
<path fill-rule="evenodd" clip-rule="evenodd" fill="#F58220" d="M8.283,10.589c-0.031,0.384,0.134,0.891,0.256,1.16
	c0.086,0.192,0.431,0.792,0.564,0.898c0.048-0.6,0.429-1.563,0.659-1.942l-1.474-0.178L8.283,10.589L8.283,10.589z"/>
<path fill-rule="evenodd" clip-rule="evenodd" fill="#F58220" d="M4.402,13.485C3.786,11.883,4.228,10.33,5.029,9.07
	C4.886,8.956,4.498,8.605,4.394,8.466C4.301,8.342,4.208,8.255,4.114,8.122C4.069,8.058,3.89,7.79,3.855,7.76
	c-0.191,0.118-0.812,1.142-0.96,1.425c-0.266,0.506-0.509,1.15-0.642,1.8c-0.065,0.322,0.167,0.563,0.307,0.789
	c0.141,0.228,0.324,0.463,0.495,0.666C3.289,12.715,4.026,13.365,4.402,13.485L4.402,13.485z"/>
<path fill-rule="evenodd" clip-rule="evenodd" fill="#FFFFFF" d="M10.345,13.9c0.054,0.019,0.656,0.485,0.772,0.565
	c0.327,0.227,0.478,0.311,1.02,0.354c1.146,0.092,2.508-0.424,2.596-1.511c0.076-0.948-1.126-2.396-1.983-2.466l-0.229-0.018
	c-0.619-0.05-1.196,0.679-1.451,1.1C10.852,12.283,10.388,13.363,10.345,13.9L10.345,13.9z"/>
<path fill-rule="evenodd" clip-rule="evenodd" fill="#FFFFFF" d="M14.752,9.138c0.246,0.078,0.795,0.587,0.961,0.774
	c0.271,0.302,0.5,0.636,0.697,0.998c0.34,0.625,0.662,1.709,0.584,2.685l-0.015,0.187c-0.028,0.345-0.166,0.952-0.278,1.201
	c-0.084,0.184-0.134,0.334-0.224,0.512c-0.067,0.134-0.226,0.361-0.26,0.47c0.275-0.05,1.026-0.566,1.282-0.728
	c0.334-0.209,0.821-0.659,1.084-0.96c0.591-0.676,1.22-1.707,1.318-2.943c0.137-1.701-0.662-3.555-2.283-3.685
	c-0.611-0.049-1.313,0.207-1.667,0.459c-0.205,0.146-0.459,0.29-0.627,0.472C15.228,8.687,14.791,9.032,14.752,9.138L14.752,9.138z"
	/>
<path fill-rule="evenodd" clip-rule="evenodd" fill="#0095DA" d="M13.075,8.626c0.356,0.029,0.543,0.045,0.829,0.128
	c0.134,0.038,0.659,0.264,0.669,0.265c0.124,0.01,1.46-1.644,2.911-1.527l0.293,0.023c0.79,0.063,1.479,0.776,1.771,1.287
	c0.315,0.553,0.607,1.471,0.538,2.337l-0.023,0.292c-0.086,1.078-0.655,2.021-1.125,2.668c-0.463,0.64-1.3,1.294-1.987,1.677
	c-0.206,0.114-0.381,0.203-0.595,0.305c-0.387,0.183-0.248,0.092-0.521,0.393c-0.281,0.311-0.603,0.663-0.932,0.911
	c-0.636,0.479-1.561,0.97-2.475,1.106c0.202,0.206,1.156,0.491,1.614,0.528l0.188,0.015c2.109,0.17,3.856-1.644,4.82-2.888
	c0.994-1.284,2.272-3.453,2.45-5.669l0.041-0.5c0.117-1.468-0.266-2.553-0.737-3.526c-0.38-0.784-1.439-1.828-2.621-1.923
	l-0.083-0.006c-0.699-0.057-1.303,0.18-1.749,0.429c-0.232,0.129-0.467,0.301-0.666,0.472c-0.259,0.22-0.346,0.329-0.553,0.604
	c-0.156,0.208-0.275,0.521-0.429,0.751c-0.164,0.247-0.274,0.486-0.457,0.716c-0.2,0.252-0.317,0.396-0.539,0.621
	C13.559,8.268,13.149,8.531,13.075,8.626L13.075,8.626z M10.715,18.416l1.196-0.009l0.003-0.041c-0.22-0.078-0.96-0.776-1.123-0.966
	c-0.205-0.238-0.728-0.94-0.706-1.319c-0.409-0.261-0.741-0.786-0.891-1.279c-0.197-0.645-0.199-1.073-0.131-1.927
	c-0.074-0.133-0.285-0.392-0.391-0.541c-0.087-0.121-0.263-0.453-0.321-0.6c-0.087-0.215-0.165-0.46-0.205-0.699
	c-0.017-0.098-0.042-0.313-0.034-0.417c0.016-0.213-0.074-0.145-0.294-0.197c-0.51-0.119-0.995-0.333-1.439-0.521
	C6.141,9.799,5.157,9.186,5.146,9.184C5.093,9.332,4.864,9.64,4.768,9.857c-0.119,0.269-0.212,0.463-0.299,0.766
	c-0.179,0.626-0.224,1.174-0.146,1.823c0.109,0.914,0.693,2.202,1.191,2.79c0.317,0.373,0.555,0.771,0.927,1.114
	c0.155,0.142,0.345,0.359,0.504,0.521c0.175,0.177,0.35,0.325,0.537,0.493c0.235,0.211,0.317,0.279,0.649,0.398
	c0.248,0.09,0.512,0.217,0.773,0.292C9.323,18.177,10.202,18.419,10.715,18.416L10.715,18.416z M5.263,9.026
	C5.351,9.168,6.31,9.73,6.541,9.801c0.227,0.07,0.479,0.205,0.75,0.293c0.261,0.085,0.553,0.143,0.825,0.229l0.007-0.083
	c0.04-0.494,0.436-1.234,0.674-1.51c0.398-0.46,0.634-0.652,1.171-0.95c0.464-0.258,0.904-0.46,1.398-0.683
	c0.483-0.219,0.993-0.384,1.461-0.609c0.609-0.293,0.804-0.326,1.325-0.769c0.407-0.347,0.678-0.705,1.016-1.131
	c0.328-0.413,0.541-0.893,0.769-1.423c0.22-0.511,0.314-1.193,0.37-1.89l-0.021-0.002c-0.037,0.468-0.611,1.296-0.868,1.556
	c-0.462,0.468-0.758,0.697-1.343,1.022c-0.463,0.257-1.101,0.48-1.665,0.62c-0.307,0.076-0.622,0.138-0.958,0.176
	c-0.158,0.018-0.327,0.035-0.492,0.06c-0.092,0.014-0.206,0.258-0.278,0.335c-0.215,0.229-0.393,0.333-0.68,0.478
	C9.886,5.578,9.724,5.636,9.588,5.67C9.323,5.738,9.378,5.729,9.172,5.843C8.646,6.133,8.206,6.42,7.712,6.728
	c-0.475,0.296-0.889,0.67-1.315,1.032C5.962,8.13,5.622,8.574,5.263,9.026L5.263,9.026z M10.071,10.523
	c0.632,0.051,1.996-0.201,2.458-0.372c0.523-0.194,1.63-0.638,1.93-1.016c-0.35-0.112-0.668-0.306-1.146-0.344l-0.083-0.006
	c-0.532-0.043-0.636,0.109-0.999,0.171c-0.36,0.062-0.597,0.189-0.886,0.328C11.013,9.444,10.188,10.156,10.071,10.523
	L10.071,10.523z M9.953,10.682c-0.036,0.112-0.171,0.309-0.233,0.456c-0.071,0.167-0.143,0.324-0.2,0.495
	c-0.103,0.308-0.25,0.775-0.281,1.151c-0.007,0.096,0.855,0.939,0.97,0.979c0.062-0.605,0.531-1.6,0.785-2.02
	c0.278-0.461,0.896-1.137,1.582-1.082l0.125,0.01c0.992,0.08,2.097,1.481,2.193,2.364c0.142,1.286-1.39,2.04-2.54,1.948
	l-0.437-0.036c-0.477-0.038-0.596-0.159-0.888-0.35c-0.14-0.093-0.632-0.484-0.733-0.514l-0.116,0.81
	c-0.082,0.535,0.059,1.758,0.397,1.877l-0.03,0.081c0.084,0.072,0.257,0.313,0.349,0.421c0.114,0.134,0.26,0.283,0.395,0.401
	c0.302,0.268,0.546,0.471,0.896,0.692c1.308-0.195,2.11-0.688,2.971-1.411c0.371-0.314,0.752-0.808,1.016-1.245
	c0.225-0.37,0.576-1.167,0.622-1.732l0.05-0.604c0.03-0.39-0.095-1.025-0.173-1.348c-0.097-0.395-0.272-0.8-0.455-1.126
	c-0.426-0.759-0.851-1.192-1.599-1.667c-0.107,0.06-0.338,0.238-0.461,0.325c-0.168,0.119-0.313,0.191-0.49,0.29
	c-0.32,0.179-0.718,0.334-1.085,0.458C12.022,10.496,10.712,10.743,9.953,10.682L9.953,10.682z M10.041,15.846l-0.015-0.861
	l0.023-0.376l0.097-0.6l0.003-0.042c0.005-0.065-0.414-0.391-0.481-0.464c-0.108-0.114-0.366-0.39-0.471-0.473
	C9.1,14.249,9.36,15.306,10.041,15.846L10.041,15.846z"/>
<path fill-rule="evenodd" clip-rule="evenodd" fill="#ED1C24" d="M7.349,19.088l0.333,0.027c0.51,0.041,1.055-0.039,1.455-0.138
	c0.232-0.057,1.079-0.316,1.192-0.445c-0.704-0.058-1.654-0.357-2.188-0.583c-0.25-0.106-0.346-0.187-0.453-0.261
	c-0.098-0.066-0.209-0.123-0.374-0.26c-0.245-0.201-0.451-0.441-0.683-0.641c-0.363-0.313-0.924-1.01-1.213-1.414
	c-0.221-0.309-0.874-1.3-0.93-1.673c-0.135-0.022-0.648-0.341-0.754-0.426c-0.236-0.188-0.405-0.365-0.614-0.544
	c-0.205-0.175-0.348-0.414-0.521-0.624c-0.111-0.136-0.393-0.647-0.443-0.69c-0.109,1.355-0.051,1.809,0.155,2.876
	c0.142,0.734,0.618,1.63,0.977,2.196C3.995,17.604,5.524,18.943,7.349,19.088L7.349,19.088z"/>
<path fill-rule="evenodd" clip-rule="evenodd" d="M10.041,15.846c-0.681-0.54-0.941-1.598-0.843-2.814
	c0.104,0.083,0.363,0.358,0.471,0.473c0.068,0.073,0.486,0.399,0.481,0.464l-0.003,0.042l-0.097,0.6l-0.023,0.376L10.041,15.846
	L10.041,15.846z M16.312,0.437c0.021,0.037-0.001,0.042,0.059,0.046l0.102,0.007l-0.01,0.944L16.45,1.58
	c-0.11,1.358-0.627,2.357-1.199,3.174c-0.237,0.338-0.705,0.844-1.017,1.109c-0.394,0.335-0.801,0.563-1.308,0.767
	c-0.938,0.377-1.988,0.77-2.841,1.245C9.482,8.21,9.383,8.319,8.934,8.823c-0.278,0.313-0.606,0.955-0.652,1.531l0.911,0.141
	l0.229,0.023l0.439,0.009c0.419-0.658,1.185-1.437,1.984-1.635c1.089-0.271,1.561-0.583,2.196-1.388
	c0.271-0.344,0.488-0.742,0.718-1.139c0.118-0.204,0.21-0.402,0.347-0.573C15.27,5.586,15.394,5.5,15.559,5.32
	c0.181-0.197,0.818-0.587,1.094-0.698c0.403-0.161,0.895-0.313,1.462-0.267c1.311,0.105,2.302,1.08,2.765,1.916
	c0.305,0.552,0.456,0.936,0.646,1.586c0.062,0.214,0.139,0.685,0.157,0.934c0.006,0.086,0.033,1.02,0.04,1.033l-0.069,0.875
	c-0.025,0.033-0.139,0.76-0.168,0.875c-0.076,0.307-0.143,0.532-0.221,0.811c-0.128,0.452-0.393,1.071-0.594,1.47
	c-0.477,0.946-0.956,1.706-1.572,2.483c-1.023,1.29-2.716,3.036-4.943,2.856l-0.313-0.024c-0.527-0.043-1.348-0.422-1.688-0.639
	c-0.49,0.073-0.892,0.075-1.491,0.027c-0.327,0.183-0.847,0.41-1.238,0.506c-0.224,0.054-0.46,0.103-0.696,0.162
	c-0.159,0.041-0.705,0.032-0.788,0.077l-0.771-0.062c-0.027-0.021-0.58-0.121-0.671-0.147c-0.22-0.063-0.411-0.14-0.617-0.213
	c-0.3-0.105-0.789-0.394-1.036-0.572c-0.59-0.43-1.198-0.99-1.588-1.58c-0.78-1.178-1.472-2.773-1.313-4.742l0.01-0.125
	c0.02-0.24,0.113-0.626,0.043-0.793c-0.083-0.201-0.159-0.405-0.226-0.624c-0.099-0.325-0.23-1.012-0.195-1.444L1.599,8.71
	c0.053-0.662,0.307-1.246,0.568-1.68c0.147-0.244,0.269-0.432,0.451-0.634c0.058-0.063,0.532-0.548,0.533-0.56
	c0.01-0.121-0.043-0.332-0.047-0.464C3.098,5.23,3.105,5.008,3.09,4.859C3.064,4.6,3.13,4.057,3.15,3.761
	c0.018-0.279-0.011-0.77-0.077-0.983c-0.107-0.35-0.228-0.432-0.436-0.677C2.325,1.732,1.813,1.351,1.387,1.07
	C1.152,0.914,0.938,0.755,0.682,0.622C0.545,0.55,0.439,0.485,0.315,0.41C0.125,0.294,0.132,0.258,0,0.154L0.008,0.05
	c0.233-0.131,0.306,0.021,0.513,0.146c0.17,0.102,0.348,0.22,0.52,0.314C1.403,0.709,1.752,0.89,2.13,1.077
	c0.316,0.157,0.85,0.361,1.243,0.437c0.669,0.129,0.843-0.119,1.409-0.074L4.907,1.45c0.987,0.079,2.042,0.945,1.967,1.876
	L6.86,3.642L6.75,4.093l-0.021,0.25C6.708,4.605,6.984,5.181,7.144,5.193c0.007,0.001,0.593-0.181,0.646-0.2
	c0.172-0.063,0.473-0.128,0.672-0.168c0.447-0.089,0.976-0.18,1.457-0.203c1.101-0.055,2.004-0.162,2.909-0.437
	c0.94-0.286,1.538-0.63,2.229-1.213c0.309-0.261,0.563-0.623,0.784-0.994c0.131-0.22,0.487-1.089,0.354-1.429L16.312,0.437
	L16.312,0.437z M7.349,19.088c-1.825-0.146-3.354-1.484-4.061-2.598c-0.359-0.566-0.834-1.462-0.977-2.196
	c-0.206-1.067-0.264-1.521-0.155-2.876c0.05,0.043,0.332,0.555,0.443,0.69c0.173,0.21,0.316,0.449,0.521,0.624
	c0.209,0.179,0.378,0.356,0.614,0.544c0.106,0.084,0.62,0.403,0.754,0.426c0.056,0.373,0.708,1.364,0.93,1.673
	c0.289,0.404,0.85,1.101,1.213,1.414c0.232,0.199,0.438,0.439,0.683,0.641c0.168,0.135,0.273,0.197,0.373,0.265
	c0.106,0.071,0.208,0.147,0.453,0.256c0.534,0.226,1.484,0.525,2.188,0.583c-0.113,0.129-0.959,0.389-1.192,0.445
	c-0.4,0.099-0.945,0.179-1.455,0.138L7.349,19.088L7.349,19.088z M10.345,13.9c0.043-0.537,0.507-1.617,0.725-1.976
	c0.255-0.421,0.832-1.149,1.451-1.1l0.229,0.018c0.857,0.069,2.06,1.518,1.983,2.466c-0.088,1.087-1.45,1.603-2.596,1.511
	c-0.542-0.044-0.693-0.128-1.02-0.354C11.001,14.385,10.398,13.918,10.345,13.9L10.345,13.9z M10.715,18.416
	c-0.513,0.004-1.392-0.238-1.812-0.36c-0.262-0.075-0.526-0.202-0.773-0.292c-0.314-0.141-0.392-0.215-0.649-0.398
	c-0.187-0.168-0.361-0.316-0.537-0.493c-0.16-0.162-0.35-0.38-0.504-0.521c-0.372-0.343-0.609-0.741-0.927-1.114
	c-0.498-0.587-1.082-1.876-1.191-2.79c-0.078-0.649-0.033-1.197,0.146-1.823c0.086-0.303,0.18-0.497,0.299-0.766
	C4.864,9.64,5.093,9.332,5.146,9.184C5.157,9.186,6.141,9.799,6.379,9.9c0.445,0.188,0.929,0.402,1.439,0.521
	c0.22,0.052,0.31-0.017,0.294,0.197c-0.008,0.104,0.017,0.319,0.034,0.417c0.04,0.238,0.118,0.484,0.205,0.699
	c0.059,0.146,0.234,0.479,0.321,0.6c0.105,0.149,0.316,0.408,0.391,0.541c-0.068,0.854-0.066,1.283,0.131,1.927
	c0.15,0.493,0.482,1.018,0.891,1.279c-0.022,0.379,0.501,1.081,0.706,1.319c0.163,0.189,0.903,0.888,1.123,0.966l-0.003,0.041
	L10.715,18.416L10.715,18.416z M8.288,10.526l1.474,0.178c-0.229,0.379-0.61,1.343-0.659,1.942
	c-0.133-0.105-0.478-0.706-0.564-0.898c-0.122-0.269-0.287-0.776-0.256-1.16L8.288,10.526L8.288,10.526z M9.953,10.682
	c0.759,0.061,2.069-0.186,2.63-0.375c0.367-0.124,0.765-0.279,1.085-0.458c0.177-0.099,0.322-0.171,0.49-0.29
	c0.123-0.087,0.354-0.265,0.461-0.325c0.748,0.475,1.173,0.908,1.599,1.667c0.183,0.326,0.358,0.731,0.455,1.126
	c0.078,0.323,0.203,0.958,0.173,1.348l-0.05,0.604c-0.046,0.565-0.397,1.362-0.622,1.732c-0.264,0.438-0.645,0.931-1.016,1.245
	c-0.861,0.724-1.663,1.216-2.971,1.411c-0.35-0.222-0.594-0.425-0.896-0.692c-0.135-0.118-0.281-0.268-0.395-0.401
	c-0.091-0.107-0.265-0.349-0.349-0.421l0.03-0.081c-0.338-0.119-0.479-1.342-0.397-1.877l0.116-0.81
	c0.101,0.03,0.593,0.421,0.733,0.514c0.292,0.191,0.411,0.312,0.888,0.35l0.437,0.036c1.15,0.092,2.681-0.662,2.54-1.948
	c-0.097-0.883-1.201-2.284-2.193-2.364l-0.125-0.01c-0.687-0.055-1.304,0.621-1.582,1.082c-0.253,0.419-0.723,1.415-0.785,2.02
	c-0.115-0.041-0.977-0.884-0.97-0.979c0.031-0.376,0.178-0.843,0.281-1.151c0.057-0.17,0.129-0.327,0.2-0.495
	C9.782,10.99,9.917,10.793,9.953,10.682L9.953,10.682z M4.402,13.485c-0.375-0.12-1.113-0.77-1.347-1.046
	c-0.171-0.203-0.354-0.438-0.495-0.666c-0.14-0.226-0.372-0.466-0.307-0.789c0.133-0.65,0.376-1.294,0.642-1.8
	c0.148-0.283,0.769-1.307,0.96-1.425C3.89,7.79,4.069,8.058,4.114,8.122c0.093,0.133,0.187,0.22,0.279,0.344
	c0.104,0.139,0.493,0.49,0.636,0.604C4.228,10.33,3.786,11.883,4.402,13.485L4.402,13.485z M10.071,10.523
	c0.117-0.367,0.942-1.079,1.273-1.239c0.289-0.138,0.526-0.266,0.886-0.328c0.363-0.063,0.467-0.214,0.999-0.171l0.083,0.006
	c0.479,0.039,0.797,0.232,1.146,0.344c-0.3,0.377-1.406,0.821-1.93,1.016C12.066,10.322,10.703,10.574,10.071,10.523L10.071,10.523z
	 M14.752,9.138c0.039-0.106,0.476-0.451,0.573-0.558c0.168-0.183,0.422-0.326,0.627-0.472c0.354-0.252,1.056-0.508,1.667-0.459
	c1.621,0.13,2.42,1.984,2.283,3.685c-0.099,1.236-0.728,2.267-1.318,2.943c-0.263,0.301-0.75,0.751-1.084,0.96
	c-0.256,0.161-1.007,0.678-1.282,0.728c0.034-0.108,0.192-0.335,0.26-0.47c0.09-0.178,0.14-0.328,0.224-0.512
	c0.112-0.249,0.25-0.855,0.278-1.201l0.015-0.187c0.078-0.976-0.244-2.06-0.584-2.685c-0.197-0.362-0.427-0.696-0.697-0.998
	C15.547,9.725,14.998,9.216,14.752,9.138L14.752,9.138z M1.759,8.807c0.055-0.69,0.257-1.178,0.508-1.636
	c0.152-0.276,0.7-1.012,0.931-1.141c-0.01,0.171,0.176,0.683,0.223,0.838c0.083,0.28,0.234,0.488,0.342,0.737
	C3.36,8.113,3.121,8.473,2.778,9.071c-0.188,0.328-0.626,1.36-0.663,1.82c-0.165-0.143-0.412-1.404-0.38-1.792L1.759,8.807
	L1.759,8.807z M13.075,8.626c0.074-0.095,0.483-0.358,0.633-0.51c0.222-0.224,0.339-0.368,0.539-0.621
	c0.183-0.23,0.293-0.469,0.457-0.716c0.153-0.23,0.272-0.544,0.429-0.751c0.207-0.275,0.294-0.384,0.553-0.604
	c0.199-0.17,0.434-0.343,0.666-0.472c0.446-0.249,1.05-0.486,1.749-0.429l0.083,0.006c1.182,0.095,2.241,1.139,2.621,1.923
	c0.472,0.973,0.854,2.058,0.737,3.526l-0.041,0.5c-0.178,2.216-1.456,4.385-2.45,5.669c-0.964,1.244-2.711,3.058-4.82,2.888
	l-0.188-0.015c-0.458-0.037-1.412-0.322-1.614-0.528c0.914-0.137,1.839-0.628,2.475-1.106c0.329-0.248,0.65-0.601,0.932-0.911
	c0.272-0.301,0.134-0.21,0.521-0.393c0.214-0.102,0.389-0.19,0.595-0.305c0.688-0.383,1.524-1.037,1.987-1.677
	c0.47-0.647,1.039-1.591,1.125-2.668l0.023-0.292c0.069-0.866-0.223-1.784-0.538-2.337c-0.291-0.511-0.98-1.223-1.771-1.287
	l-0.293-0.023c-1.451-0.117-2.787,1.537-2.911,1.527c-0.01-0.001-0.535-0.227-0.669-0.265C13.618,8.671,13.432,8.655,13.075,8.626
	L13.075,8.626z M3.971,7.622c0.302-0.475,0.996-0.955,1.421-1.317c0.427-0.362,1.19-0.689,1.736-0.924
	c0.13,0.133,0.541,0.287,0.79,0.336c0.391,0.079,0.615,0.049,1,0.08C8.62,6.018,8.182,6.202,7.856,6.441
	c-0.34,0.249-0.664,0.457-1.002,0.716C6.524,7.41,5.271,8.576,5.145,8.933C4.888,8.85,4.084,7.884,3.971,7.622L3.971,7.622z
	 M3.333,5.915C3.566,5.62,4.45,5.107,4.831,4.916c0.61-0.308,1.095-0.462,1.743-0.711c-0.02,0.244,0.02,0.477,0.096,0.637
	c0.052,0.108,0.292,0.402,0.3,0.443C6.551,5.347,5.631,5.972,5.277,6.193c-0.255,0.159-0.511,0.393-0.73,0.6
	C4.44,6.894,3.935,7.417,3.881,7.447C3.685,7.279,3.386,6.269,3.333,5.915L3.333,5.915z M7.321,5.333
	c0.219-0.253,2.742-0.639,3.381-0.588C10.3,5.377,9.347,5.706,8.325,5.624c-0.184-0.015-0.408-0.063-0.56-0.106
	C7.587,5.467,7.465,5.38,7.321,5.333L7.321,5.333z M3.308,5.703C3.22,5.475,3.254,4.543,3.284,4.17
	c0.037-0.468,0.047-1.149-0.07-1.473C3.07,2.299,2.811,2.014,2.508,1.745C2.353,1.606,2.226,1.482,2.06,1.351
	C1.979,1.288,1.619,1.043,1.589,0.995c0.124,0.039,0.339,0.164,0.467,0.224c0.158,0.073,0.297,0.135,0.472,0.2
	c0.325,0.122,0.667,0.251,1.08,0.284l0.125,0.01C4.122,1.743,4.316,1.57,4.686,1.6l0.312,0.025c0.469,0.038,1.001,0.367,1.246,0.608
	c0.208,0.207,0.57,0.811,0.471,1.249L6.603,4.017C6.33,4.139,5.99,4.227,5.702,4.344S5.124,4.588,4.845,4.728
	C4.561,4.871,4.301,5.007,4.046,5.179C3.832,5.323,3.495,5.599,3.308,5.703L3.308,5.703z M5.263,9.026
	C5.622,8.574,5.962,8.13,6.397,7.759c0.426-0.362,0.84-0.736,1.315-1.032C8.206,6.42,8.646,6.133,9.172,5.843
	C9.378,5.729,9.323,5.738,9.588,5.67c0.136-0.035,0.298-0.092,0.415-0.151c0.288-0.145,0.465-0.249,0.68-0.478
	c0.072-0.077,0.186-0.321,0.278-0.335c0.165-0.024,0.334-0.042,0.492-0.06c0.335-0.038,0.65-0.1,0.958-0.176
	c0.564-0.14,1.202-0.363,1.665-0.62c0.585-0.325,0.881-0.554,1.343-1.022c0.257-0.259,0.831-1.087,0.868-1.556l0.021,0.002
	c-0.056,0.697-0.15,1.379-0.37,1.89c-0.228,0.53-0.44,1.01-0.769,1.423C14.83,5.015,14.56,5.373,14.152,5.72
	c-0.521,0.443-0.716,0.476-1.325,0.769c-0.468,0.226-0.978,0.391-1.461,0.609c-0.494,0.223-0.934,0.425-1.398,0.683
	c-0.537,0.298-0.772,0.49-1.171,0.95c-0.239,0.276-0.635,1.016-0.674,1.51l-0.007,0.083c-0.271-0.086-0.564-0.144-0.825-0.229
	c-0.271-0.089-0.522-0.223-0.75-0.293C6.31,9.73,5.351,9.168,5.263,9.026L5.263,9.026z"/>
<path fill-rule="evenodd" clip-rule="evenodd" d="M4.898,2.028c0.126,0.01,0.221,0.121,0.21,0.247
	c-0.01,0.126-0.121,0.221-0.248,0.211c-0.126-0.011-0.22-0.121-0.21-0.248C4.661,2.112,4.772,2.018,4.898,2.028L4.898,2.028z"/>
<path fill-rule="evenodd" clip-rule="evenodd" fill="#0095DA" d="M5.402,21.724c0,0.606-0.1,1.051-0.3,1.333
	c-0.133,0.184-0.404,0.377-0.811,0.577c-0.651,0.326-1.055,0.577-1.21,0.755c-0.156,0.178-0.359,0.622-0.611,1.333
	c-0.089,0.104-0.174,0.154-0.256,0.154c-0.2,0-0.355-0.354-0.466-1.065c-0.074-0.488-0.111-0.959-0.111-1.41
	c0,0.008-0.009-0.122-0.028-0.389c-0.018-0.267-0.028-0.563-0.028-0.889c-0.007-0.474,0.002-1.01,0.028-1.609
	c0.026-0.601,0.487-0.9,1.383-0.9c0.688,0,1.255,0.181,1.699,0.545C5.165,20.536,5.402,21.057,5.402,21.724L5.402,21.724z
	 M4.025,21.768c-0.007-0.496-0.181-0.755-0.522-0.777c-0.17-0.007-0.309,0.063-0.417,0.211c-0.107,0.148-0.168,0.322-0.183,0.522
	c-0.015,0.215,0.033,0.403,0.145,0.566c0.118,0.185,0.271,0.27,0.455,0.255C3.851,22.516,4.025,22.257,4.025,21.768L4.025,21.768z
	 M9.654,21.102c0,0.237-0.168,0.476-0.505,0.717c-0.337,0.239-0.505,0.434-0.505,0.582c0,0.067,0.029,0.159,0.088,0.278
	c0.06,0.118,0.089,0.226,0.089,0.322c0,0.206-0.123,0.381-0.367,0.521c-0.215,0.126-0.448,0.188-0.7,0.188
	c-0.614,0-1.088-0.255-1.421-0.766c-0.259-0.407-0.389-0.862-0.389-1.366c0-0.541,0.183-1.015,0.55-1.421
	c0.367-0.408,0.816-0.611,1.349-0.611c0.474,0,0.895,0.162,1.261,0.488C9.471,20.361,9.654,20.716,9.654,21.102L9.654,21.102z
	 M8.354,21.258c0-0.172-0.048-0.316-0.144-0.434c-0.096-0.119-0.211-0.178-0.345-0.178s-0.248,0.059-0.344,0.178
	c-0.096,0.117-0.145,0.262-0.145,0.434c0,0.169,0.048,0.313,0.145,0.433c0.096,0.118,0.211,0.178,0.344,0.178
	s0.249-0.06,0.345-0.178C8.306,21.572,8.354,21.427,8.354,21.258L8.354,21.258z M13.964,21.524c0,0.126,0,0.298,0,0.517
	c0,0.218,0,0.368,0,0.45c0,0.422-0.078,0.714-0.232,0.877c-0.02,0.021-0.042,0.042-0.065,0.062l0.02-0.098
	c0.056-0.24-0.143-0.572-0.259-0.686c-0.134-0.133-0.427-0.313-0.684-0.335l-0.171-0.014c-0.204-0.017-0.311,0.079-0.523,0.062
	l-0.069-0.005c-0.227-0.019-0.415-0.09-0.594-0.156c-0.096-0.036-0.173-0.069-0.259-0.109c-0.07-0.033-0.189-0.102-0.255-0.123
	c0.016,0.026,0.214,0.161,0.257,0.195c0.091,0.072,0.161,0.141,0.248,0.217c0.166,0.147,0.307,0.304,0.387,0.523
	c0.055,0.15,0.06,0.444,0.046,0.688c-0.357-0.088-0.666-0.239-0.927-0.454c-0.471-0.385-0.706-0.921-0.706-1.61
	c0-0.741,0.237-1.296,0.71-1.666c0.414-0.326,0.98-0.488,1.699-0.488c0.57,0,0.959,0.096,1.167,0.289
	c0.169,0.147,0.255,0.41,0.255,0.788c0,0.089-0.008,0.255-0.022,0.5C13.97,21.191,13.964,21.383,13.964,21.524L13.964,21.524z
	 M12.586,21.524c0-0.207-0.048-0.382-0.144-0.521c-0.104-0.172-0.244-0.256-0.422-0.256c-0.341,0.007-0.526,0.252-0.556,0.732
	c-0.014,0.216,0.026,0.4,0.123,0.557c0.111,0.178,0.255,0.266,0.433,0.266c0.178,0,0.316-0.077,0.416-0.232
	C12.536,21.913,12.586,21.731,12.586,21.524L12.586,21.524z M17.605,20.186c-0.155,0.092-0.418,0.194-0.789,0.305
	c-0.332,0.09-0.562,0.189-0.688,0.301c-0.2,0.169-0.3,0.425-0.3,0.766c0,0.349,0.107,0.629,0.321,0.844
	c0.023,0.023,0.244,0.186,0.666,0.489c0.172,0.126,0.256,0.251,0.256,0.378c0,0.11-0.064,0.205-0.193,0.282
	c-0.13,0.078-0.279,0.117-0.45,0.117c-0.6,0-1.081-0.237-1.443-0.711c-0.297-0.399-0.444-0.852-0.444-1.354
	c0-0.675,0.205-1.201,0.616-1.583s0.949-0.571,1.616-0.571c0.178,0,0.389,0.04,0.633,0.121c0.288,0.104,0.433,0.219,0.433,0.345
	C17.839,20.002,17.762,20.093,17.605,20.186L17.605,20.186z M21.693,21.102c0,0.237-0.169,0.476-0.506,0.717
	c-0.336,0.239-0.506,0.434-0.506,0.582c0,0.067,0.03,0.159,0.09,0.278c0.059,0.118,0.088,0.226,0.088,0.322
	c0,0.206-0.122,0.381-0.366,0.521c-0.215,0.126-0.447,0.188-0.7,0.188c-0.614,0-1.088-0.255-1.421-0.766
	c-0.26-0.407-0.39-0.862-0.39-1.366c0-0.541,0.185-1.015,0.551-1.421c0.366-0.408,0.816-0.611,1.35-0.611
	c0.474,0,0.894,0.162,1.261,0.488C21.51,20.361,21.693,20.716,21.693,21.102L21.693,21.102z M20.393,21.258
	c0-0.172-0.047-0.316-0.144-0.434c-0.096-0.119-0.211-0.178-0.345-0.178c-0.133,0-0.247,0.059-0.344,0.178
	c-0.096,0.117-0.145,0.262-0.145,0.434c0,0.169,0.049,0.313,0.145,0.433c0.097,0.118,0.211,0.178,0.344,0.178
	c0.134,0,0.249-0.06,0.345-0.178C20.346,21.572,20.393,21.427,20.393,21.258L20.393,21.258z"/>
<path fill="#8ED8F8" d="M12.703,24.071c0,0.105-0.037,0.198-0.109,0.279c-0.072,0.08-0.161,0.121-0.267,0.121
	c-0.254,0-0.381-0.179-0.381-0.537c0-0.038,0.001-0.079,0.003-0.123c0.002-0.045,0.003-0.069,0.003-0.071
	c0-0.007-0.001-0.03-0.003-0.07s-0.003-0.076-0.003-0.108c0-0.37,0.13-0.554,0.39-0.554c0.027,0,0.056,0.006,0.088,0.02
	c0.038,0.015,0.057,0.033,0.057,0.057c0,0.012-0.005,0.024-0.018,0.038c-0.105,0.063-0.174,0.112-0.204,0.146
	c-0.034,0.038-0.051,0.088-0.051,0.147c0,0.096,0.042,0.169,0.128,0.223c0.08,0.045,0.16,0.09,0.239,0.134
	C12.66,23.84,12.703,23.94,12.703,24.071L12.703,24.071z M12.447,24.071c0-0.027-0.009-0.058-0.028-0.087
	c-0.021-0.039-0.049-0.059-0.083-0.059c-0.035,0-0.062,0.017-0.083,0.048c-0.017,0.027-0.026,0.06-0.026,0.098
	c0,0.097,0.033,0.146,0.1,0.146c0.028,0,0.055-0.017,0.082-0.049C12.434,24.135,12.447,24.103,12.447,24.071L12.447,24.071z
	 M13.576,23.75c0,0.011,0,0.034,0,0.073c0,0.038,0,0.07,0,0.096c0,0.377-0.129,0.565-0.388,0.565c-0.258,0-0.388-0.191-0.388-0.575
	c0-0.026,0-0.058,0-0.094s0-0.058,0-0.065c0-0.007,0-0.029,0-0.066c0-0.038,0-0.07,0-0.096c0-0.38,0.13-0.569,0.388-0.569
	c0.259,0,0.388,0.189,0.388,0.569c0,0.025,0,0.058,0,0.096C13.576,23.72,13.576,23.743,13.576,23.75L13.576,23.75z M13.315,23.75
	c0.004-0.156,0.002-0.259-0.004-0.306c-0.015-0.109-0.05-0.166-0.105-0.169c-0.069-0.004-0.114,0.05-0.132,0.163
	c-0.008,0.036-0.012,0.141-0.013,0.312c-0.005,0.318,0.039,0.478,0.131,0.478c0.059,0,0.097-0.055,0.112-0.165
	C13.311,24.02,13.314,23.916,13.315,23.75L13.315,23.75z M14.893,24.198c0,0.192-0.013,0.327-0.035,0.405
	c-0.055,0.185-0.171,0.277-0.35,0.277c-0.033,0-0.064-0.009-0.097-0.025c-0.037-0.019-0.058-0.041-0.058-0.067
	c0-0.016,0.007-0.032,0.019-0.047c0.019-0.021,0.053-0.052,0.103-0.09c0.04-0.028,0.06-0.05,0.06-0.062
	c0-0.045-0.016-0.079-0.048-0.103c-0.046-0.025-0.091-0.05-0.134-0.073c-0.099-0.054-0.165-0.128-0.198-0.219
	c-0.02-0.056-0.029-0.131-0.029-0.228c0-0.199,0.043-0.3,0.127-0.3c0.052,0,0.087,0.047,0.104,0.14
	c0.012,0.085,0.022,0.17,0.032,0.253c0.02,0.092,0.057,0.138,0.11,0.138c0.072,0,0.117-0.046,0.134-0.138
	c0.008-0.083,0.015-0.168,0.022-0.253c0.014-0.093,0.049-0.14,0.107-0.14c0.088,0,0.133,0.144,0.133,0.428
	c0,0.022-0.002,0.048-0.003,0.072C14.893,24.191,14.893,24.201,14.893,24.198L14.893,24.198z M15.752,23.957
	c0,0.047-0.033,0.094-0.1,0.142c-0.067,0.048-0.102,0.086-0.102,0.115c0,0.014,0.007,0.031,0.019,0.056
	c0.012,0.023,0.017,0.045,0.017,0.063c0,0.041-0.023,0.075-0.071,0.103c-0.043,0.025-0.089,0.038-0.14,0.038
	c-0.121,0-0.214-0.051-0.28-0.151c-0.052-0.081-0.077-0.171-0.077-0.271c0-0.106,0.036-0.199,0.108-0.281
	c0.073-0.079,0.162-0.12,0.268-0.12c0.094,0,0.177,0.032,0.249,0.097C15.716,23.81,15.752,23.88,15.752,23.957L15.752,23.957z
	 M15.495,23.987c0-0.033-0.011-0.062-0.028-0.085c-0.021-0.023-0.043-0.035-0.069-0.035c-0.025,0-0.049,0.012-0.067,0.035
	c-0.02,0.023-0.028,0.052-0.028,0.085c0,0.035,0.009,0.063,0.028,0.086c0.019,0.023,0.042,0.035,0.067,0.035
	c0.026,0,0.049-0.012,0.069-0.035C15.484,24.05,15.495,24.022,15.495,23.987L15.495,23.987z M16.604,24.04c0,0.025,0,0.061,0,0.103
	c0,0.043,0,0.073,0,0.089c0,0.084-0.015,0.142-0.045,0.175c-0.038,0.04-0.111,0.061-0.222,0.061c-0.141,0-0.255-0.036-0.343-0.107
	c-0.094-0.076-0.14-0.183-0.14-0.319c0-0.146,0.046-0.256,0.141-0.329c0.082-0.064,0.193-0.098,0.336-0.098
	c0.113,0,0.19,0.021,0.23,0.059c0.034,0.028,0.051,0.081,0.051,0.156c0,0.017-0.001,0.05-0.004,0.098
	C16.605,23.973,16.604,24.011,16.604,24.04L16.604,24.04z M16.332,24.04c0-0.04-0.009-0.074-0.028-0.103
	c-0.021-0.034-0.048-0.052-0.083-0.052c-0.068,0.002-0.104,0.051-0.11,0.146c-0.003,0.042,0.005,0.079,0.024,0.109
	c0.021,0.035,0.05,0.054,0.086,0.054c0.035,0,0.062-0.017,0.081-0.047C16.322,24.117,16.332,24.082,16.332,24.04L16.332,24.04z
	 M17.249,23.756c0,0.018-0.012,0.039-0.035,0.066c-0.015,0.015-0.053,0.038-0.116,0.07c-0.047,0.024-0.08,0.065-0.104,0.123
	c-0.008,0.019-0.013,0.072-0.018,0.158c-0.005,0.093-0.013,0.158-0.024,0.198c-0.019,0.064-0.052,0.096-0.099,0.096
	c-0.037,0-0.066-0.029-0.09-0.088c-0.023-0.058-0.035-0.128-0.035-0.208c0-0.131,0.027-0.24,0.085-0.33
	c0.069-0.108,0.168-0.163,0.298-0.163C17.202,23.679,17.249,23.706,17.249,23.756L17.249,23.756z M17.922,24.213
	c0,0.078-0.046,0.144-0.139,0.196c-0.07,0.039-0.132,0.059-0.184,0.059c-0.025,0-0.053-0.004-0.082-0.013
	c-0.038-0.014-0.058-0.029-0.058-0.049c0-0.016,0.031-0.04,0.093-0.074c0.062-0.033,0.092-0.062,0.09-0.083
	c-0.003-0.032-0.064-0.088-0.186-0.172s-0.182-0.147-0.182-0.188c0-0.074,0.047-0.135,0.141-0.183
	c0.07-0.037,0.132-0.056,0.184-0.056c0.05,0,0.079,0,0.092,0.002c0.042,0.008,0.061,0.026,0.055,0.058
	c-0.006,0.034-0.029,0.068-0.072,0.104c-0.041,0.036-0.059,0.063-0.053,0.078c0.013,0.037,0.068,0.088,0.167,0.149
	C17.877,24.1,17.922,24.156,17.922,24.213L17.922,24.213z"/>
</svg>
