<?xml version="1.0" encoding="utf-8"?>
<!-- Generator: Adobe Illustrator 16.0.0, SVG Export Plug-In . SVG Version: 6.00 Build 0)  -->
<!DOCTYPE svg PUBLIC "-//W3C//DTD SVG 1.1//EN" "http://www.w3.org/Graphics/SVG/1.1/DTD/svg11.dtd">
<svg version="1.1" id="METROPOLIS" xmlns="http://www.w3.org/2000/svg" xmlns:xlink="http://www.w3.org/1999/xlink" x="0px" y="0px"
	 width="1051px" height="627px" viewBox="-309.5 -60 1051 627" enable-background="new -309.5 -60 1051 627" xml:space="preserve">
<g id="SUBTITULO">
	<g>
		<path d="M-167.136,424.968c0.181,0,0.346,0.074,0.493,0.223l1.292,1.409c-0.998,1.156-2.208,2.059-3.629,2.703
			c-1.423,0.646-3.137,0.971-5.143,0.971c-1.757,0-3.349-0.305-4.777-0.91c-1.428-0.606-2.646-1.456-3.655-2.551
			c-1.009-1.094-1.791-2.404-2.346-3.936c-0.555-1.531-0.833-3.213-0.833-5.049s0.298-3.521,0.893-5.049
			c0.595-1.53,1.431-2.846,2.508-3.944c1.076-1.099,2.366-1.952,3.867-2.559c1.502-0.606,3.159-0.909,4.973-0.909
			c1.791,0,3.334,0.276,4.632,0.833c1.298,0.556,2.451,1.309,3.459,2.261l-1.071,1.513c-0.08,0.114-0.17,0.207-0.272,0.281
			c-0.102,0.073-0.25,0.11-0.442,0.11c-0.147,0-0.304-0.055-0.468-0.162c-0.164-0.107-0.36-0.24-0.586-0.399
			c-0.227-0.157-0.493-0.328-0.799-0.51c-0.306-0.181-0.669-0.352-1.088-0.51c-0.419-0.159-0.907-0.292-1.462-0.399
			c-0.555-0.106-1.196-0.162-1.921-0.162c-1.303,0-2.496,0.226-3.579,0.672c-1.082,0.448-2.014,1.086-2.796,1.912
			c-0.782,0.828-1.391,1.836-1.828,3.026c-0.436,1.19-0.654,2.521-0.654,3.995c0,1.519,0.218,2.873,0.654,4.063
			c0.437,1.19,1.031,2.196,1.785,3.019c0.753,0.821,1.646,1.448,2.678,1.879c1.031,0.431,2.142,0.646,3.332,0.646
			c0.725,0,1.377-0.042,1.955-0.127s1.114-0.218,1.607-0.398c0.493-0.183,0.952-0.411,1.377-0.688s0.853-0.608,1.283-0.995
			C-167.504,425.053-167.317,424.968-167.136,424.968z"/>
		<path d="M-134.139,417.828c0,1.825-0.289,3.499-0.867,5.022c-0.578,1.524-1.394,2.837-2.448,3.937
			c-1.054,1.1-2.32,1.952-3.799,2.559c-1.479,0.607-3.114,0.909-4.905,0.909s-3.423-0.303-4.896-0.909
			c-1.473-0.605-2.737-1.459-3.791-2.559c-1.054-1.1-1.87-2.411-2.448-3.937c-0.578-1.523-0.867-3.197-0.867-5.022
			c0-1.824,0.289-3.499,0.867-5.023c0.578-1.523,1.394-2.839,2.448-3.943c1.054-1.104,2.318-1.963,3.791-2.575
			c1.473-0.612,3.105-0.918,4.896-0.918s3.426,0.306,4.905,0.918s2.745,1.471,3.799,2.575c1.054,1.104,1.87,2.42,2.448,3.943
			C-134.428,414.329-134.139,416.004-134.139,417.828z M-137.522,417.828c0-1.496-0.204-2.839-0.612-4.029
			c-0.408-1.188-0.986-2.195-1.734-3.018c-0.748-0.821-1.655-1.453-2.72-1.896c-1.065-0.44-2.256-0.663-3.57-0.663
			c-1.303,0-2.488,0.223-3.553,0.663c-1.065,0.442-1.975,1.074-2.729,1.896c-0.754,0.821-1.334,1.828-1.743,3.018
			c-0.408,1.19-0.612,2.533-0.612,4.029s0.204,2.836,0.612,4.021c0.408,1.186,0.989,2.188,1.743,3.01
			c0.753,0.821,1.663,1.45,2.729,1.887c1.065,0.437,2.25,0.655,3.553,0.655c1.314,0,2.505-0.22,3.57-0.655
			c1.065-0.437,1.972-1.064,2.72-1.887c0.748-0.821,1.326-1.824,1.734-3.01C-137.726,420.664-137.522,419.324-137.522,417.828z"/>
		<path d="M-126.643,418.525h8.398v2.565h-8.398V418.525z"/>
		<path d="M-112.057,405.639h2.737c0.294,0,0.538,0.074,0.731,0.223c0.192,0.146,0.323,0.334,0.391,0.561l5.032,16.932
			c0.091,0.308,0.173,0.637,0.247,0.986c0.074,0.353,0.145,0.72,0.212,1.105c0.079-0.387,0.159-0.757,0.238-1.114
			c0.079-0.356,0.17-0.683,0.272-0.979l5.729-16.932c0.068-0.192,0.201-0.371,0.399-0.535c0.198-0.164,0.439-0.247,0.723-0.247
			h0.952c0.295,0,0.536,0.074,0.723,0.223c0.187,0.147,0.32,0.334,0.399,0.561l5.695,16.932c0.204,0.591,0.385,1.266,0.544,2.023
			c0.068-0.374,0.13-0.73,0.187-1.071c0.056-0.34,0.13-0.656,0.221-0.952l5.049-16.932c0.056-0.204,0.184-0.385,0.382-0.544
			c0.198-0.158,0.439-0.238,0.723-0.238h2.567L-85.503,430h-2.958l-6.171-18.581c-0.125-0.352-0.238-0.759-0.34-1.224
			c-0.057,0.227-0.111,0.443-0.162,0.653c-0.051,0.21-0.105,0.399-0.162,0.569L-101.5,430h-2.958L-112.057,405.639z"/>
		<path d="M-47.814,417.828c0,1.825-0.289,3.499-0.867,5.022c-0.578,1.524-1.394,2.837-2.448,3.937
			c-1.054,1.1-2.32,1.952-3.799,2.559c-1.479,0.607-3.114,0.909-4.905,0.909s-3.423-0.303-4.896-0.909
			c-1.473-0.605-2.737-1.459-3.791-2.559s-1.87-2.411-2.448-3.937c-0.578-1.523-0.867-3.197-0.867-5.022
			c0-1.824,0.289-3.499,0.867-5.023c0.578-1.523,1.394-2.839,2.448-3.943s2.318-1.963,3.791-2.575s3.105-0.918,4.896-0.918
			s3.426,0.306,4.905,0.918s2.745,1.471,3.799,2.575c1.054,1.104,1.87,2.42,2.448,3.943
			C-48.104,414.329-47.814,416.004-47.814,417.828z M-51.197,417.828c0-1.496-0.204-2.839-0.612-4.029
			c-0.408-1.188-0.986-2.195-1.734-3.018c-0.748-0.821-1.655-1.453-2.72-1.896c-1.065-0.44-2.256-0.663-3.57-0.663
			c-1.303,0-2.488,0.223-3.553,0.663c-1.065,0.442-1.975,1.074-2.729,1.896c-0.754,0.821-1.334,1.828-1.743,3.018
			c-0.408,1.19-0.612,2.533-0.612,4.029s0.204,2.836,0.612,4.021c0.408,1.186,0.989,2.188,1.743,3.01
			c0.753,0.821,1.663,1.45,2.729,1.887c1.065,0.437,2.25,0.655,3.553,0.655c1.314,0,2.505-0.22,3.57-0.655
			c1.065-0.437,1.972-1.064,2.72-1.887c0.748-0.821,1.326-1.824,1.734-3.01C-51.401,420.664-51.197,419.324-51.197,417.828z"/>
		<path d="M-35.438,419.834V430h-3.281v-24.361h6.885c1.541,0,2.873,0.156,3.995,0.469c1.122,0.312,2.048,0.763,2.779,1.352
			c0.731,0.59,1.272,1.301,1.624,2.134c0.351,0.833,0.527,1.766,0.527,2.796c0,0.861-0.136,1.666-0.408,2.414
			s-0.666,1.42-1.182,2.016c-0.516,0.595-1.145,1.103-1.887,1.521c-0.742,0.42-1.584,0.737-2.524,0.952
			c0.408,0.238,0.771,0.584,1.088,1.037l7.106,9.673h-2.924c-0.601,0-1.043-0.232-1.326-0.697l-6.324-8.704
			c-0.193-0.271-0.402-0.467-0.629-0.586s-0.567-0.179-1.02-0.179L-35.438,419.834L-35.438,419.834z M-35.438,417.438h3.451
			c0.963,0,1.811-0.115,2.542-0.349c0.731-0.231,1.343-0.562,1.836-0.985c0.493-0.426,0.864-0.933,1.113-1.521
			s0.374-1.241,0.374-1.955c0-1.45-0.479-2.544-1.437-3.281c-0.958-0.735-2.383-1.104-4.275-1.104h-3.604V417.438z"/>
		<path d="M-9.292,416.315h1.241c0.431,0,0.773-0.055,1.029-0.162c0.255-0.107,0.496-0.291,0.722-0.554l8.109-9.18
			c0.249-0.283,0.49-0.484,0.722-0.604c0.232-0.12,0.53-0.18,0.893-0.18h2.805l-9.282,10.489c-0.238,0.261-0.462,0.481-0.671,0.663
			c-0.21,0.182-0.434,0.329-0.671,0.442c0.317,0.102,0.595,0.255,0.833,0.459s0.487,0.459,0.748,0.765L6.875,430H4.019
			c-0.215,0-0.397-0.017-0.544-0.051s-0.275-0.079-0.383-0.136c-0.108-0.058-0.207-0.132-0.297-0.223
			c-0.091-0.091-0.182-0.187-0.272-0.289l-8.415-9.673c-0.125-0.136-0.241-0.252-0.349-0.349c-0.108-0.097-0.232-0.18-0.374-0.246
			c-0.142-0.068-0.306-0.116-0.493-0.146c-0.187-0.028-0.417-0.043-0.688-0.043h-1.496V430h-3.281v-24.361h3.281V416.315z"/>
		<path d="M18.4,430h-3.298v-24.361H18.4V430z"/>
		<path d="M31.533,405.749c0.142,0.074,0.303,0.225,0.484,0.451l14.11,18.358c-0.034-0.294-0.057-0.58-0.068-0.857
			c-0.011-0.277-0.017-0.546-0.017-0.809v-17.255h2.89V430h-1.666c-0.261,0-0.479-0.045-0.654-0.136
			c-0.176-0.091-0.349-0.244-0.519-0.459L32,411.063c0.023,0.283,0.04,0.562,0.051,0.832c0.011,0.272,0.017,0.521,0.017,0.748V430
			h-2.89v-24.361h1.7C31.173,405.639,31.391,405.676,31.533,405.749z"/>
		<path d="M69.995,427.603c0.657,0,1.261-0.029,1.811-0.093c0.55-0.063,1.068-0.156,1.556-0.281
			c0.487-0.123,0.946-0.273,1.377-0.449c0.431-0.177,0.861-0.377,1.292-0.604v-5.372h-3.774c-0.215,0-0.388-0.062-0.519-0.187
			c-0.131-0.125-0.195-0.277-0.195-0.459v-1.87h7.48v9.35c-0.612,0.442-1.25,0.828-1.913,1.156
			c-0.663,0.329-1.372,0.604-2.125,0.824c-0.754,0.222-1.562,0.386-2.422,0.493c-0.862,0.106-1.796,0.161-2.805,0.161
			c-1.768,0-3.389-0.304-4.862-0.909c-1.474-0.606-2.743-1.456-3.808-2.551c-1.065-1.094-1.896-2.404-2.491-3.936
			c-0.595-1.53-0.893-3.213-0.893-5.049c0-1.858,0.292-3.553,0.875-5.083c0.584-1.53,1.417-2.842,2.499-3.937
			c1.083-1.094,2.392-1.939,3.927-2.542c1.536-0.601,3.255-0.899,5.16-0.899c0.963,0,1.858,0.069,2.686,0.212
			s1.595,0.347,2.304,0.612c0.708,0.267,1.363,0.59,1.963,0.969c0.601,0.38,1.162,0.808,1.683,1.284l-0.935,1.496
			c-0.193,0.306-0.442,0.459-0.748,0.459c-0.181,0-0.38-0.063-0.595-0.188c-0.284-0.158-0.601-0.351-0.952-0.578
			c-0.352-0.227-0.779-0.444-1.284-0.654s-1.099-0.388-1.785-0.534c-0.686-0.147-1.499-0.223-2.439-0.223
			c-1.372,0-2.613,0.226-3.723,0.672c-1.111,0.448-2.057,1.089-2.839,1.922s-1.383,1.842-1.802,3.025
			c-0.419,1.185-0.629,2.513-0.629,3.986c0,1.541,0.218,2.915,0.654,4.122c0.437,1.207,1.051,2.229,1.845,3.067
			c0.793,0.84,1.734,1.479,2.822,1.922C67.479,427.382,68.68,427.603,69.995,427.603z"/>
		<path d="M86.978,427.909c0-0.261,0.048-0.507,0.145-0.739c0.096-0.232,0.232-0.437,0.408-0.612
			c0.176-0.175,0.388-0.313,0.638-0.417c0.249-0.102,0.521-0.151,0.816-0.151c0.34,0,0.643,0.063,0.91,0.187
			c0.266,0.125,0.487,0.298,0.663,0.52c0.176,0.221,0.309,0.477,0.4,0.766c0.09,0.288,0.136,0.604,0.136,0.943
			c0,0.51-0.074,1.04-0.221,1.589c-0.147,0.55-0.357,1.094-0.629,1.632c-0.272,0.539-0.609,1.063-1.011,1.573
			c-0.402,0.51-0.858,0.979-1.369,1.411l-0.51-0.493c-0.147-0.138-0.221-0.295-0.221-0.478c0-0.146,0.079-0.3,0.238-0.459
			c0.113-0.125,0.258-0.292,0.434-0.501c0.176-0.21,0.354-0.451,0.536-0.723c0.181-0.272,0.349-0.572,0.501-0.901
			c0.153-0.328,0.264-0.68,0.332-1.054H88.95c-0.294,0-0.561-0.051-0.799-0.153c-0.238-0.102-0.445-0.246-0.621-0.434
			c-0.176-0.188-0.312-0.407-0.408-0.662C87.026,428.495,86.978,428.215,86.978,427.909z"/>
		<path d="M130.65,430h-2.55c-0.295,0-0.533-0.073-0.714-0.221c-0.181-0.148-0.317-0.334-0.408-0.563l-2.278-5.882h-10.931
			l-2.278,5.882c-0.079,0.204-0.215,0.386-0.408,0.544c-0.193,0.159-0.431,0.238-0.714,0.238h-2.55l9.741-24.361h3.349L130.65,430z
			 M114.687,420.956h9.095l-3.825-9.911c-0.25-0.612-0.493-1.377-0.731-2.295c-0.125,0.465-0.247,0.893-0.366,1.283
			c-0.119,0.392-0.235,0.733-0.349,1.027L114.687,420.956z"/>
		<path d="M150.455,409.447c-0.102,0.17-0.21,0.297-0.323,0.382c-0.113,0.085-0.261,0.128-0.442,0.128
			c-0.193,0-0.417-0.096-0.671-0.289c-0.255-0.192-0.578-0.405-0.969-0.638c-0.391-0.231-0.861-0.444-1.411-0.639
			c-0.55-0.191-1.216-0.289-1.998-0.289c-0.737,0-1.389,0.101-1.955,0.299c-0.567,0.197-1.04,0.468-1.419,0.808
			c-0.38,0.34-0.666,0.739-0.858,1.198c-0.193,0.459-0.289,0.955-0.289,1.486c0,0.682,0.167,1.244,0.501,1.692
			c0.334,0.447,0.776,0.83,1.326,1.147c0.549,0.316,1.173,0.592,1.87,0.823c0.697,0.232,1.411,0.475,2.142,0.724
			s1.445,0.528,2.142,0.841c0.697,0.313,1.32,0.706,1.87,1.182c0.549,0.478,0.991,1.062,1.326,1.751
			c0.334,0.691,0.501,1.542,0.501,2.552c0,1.064-0.181,2.064-0.544,3c-0.363,0.935-0.893,1.747-1.589,2.438
			c-0.696,0.691-1.553,1.235-2.567,1.632c-1.015,0.396-2.167,0.596-3.459,0.596c-1.576,0-3.012-0.285-4.31-0.858
			c-1.298-0.571-2.406-1.346-3.324-2.32l0.952-1.563c0.091-0.125,0.201-0.229,0.332-0.314c0.13-0.085,0.274-0.128,0.434-0.128
			c0.238,0,0.51,0.128,0.816,0.383s0.688,0.535,1.147,0.841c0.459,0.308,1.014,0.588,1.666,0.843
			c0.651,0.255,1.448,0.383,2.389,0.383c0.782,0,1.479-0.107,2.091-0.323c0.612-0.215,1.13-0.519,1.556-0.909
			c0.425-0.392,0.75-0.857,0.978-1.401c0.227-0.544,0.34-1.15,0.34-1.819c0-0.736-0.167-1.34-0.501-1.811s-0.773-0.864-1.317-1.183
			c-0.544-0.316-1.165-0.586-1.862-0.808c-0.697-0.222-1.411-0.447-2.142-0.681c-0.731-0.232-1.445-0.502-2.142-0.808
			c-0.697-0.306-1.318-0.702-1.862-1.19c-0.544-0.485-0.983-1.096-1.317-1.826s-0.501-1.636-0.501-2.711
			c0-0.861,0.167-1.694,0.501-2.499c0.334-0.806,0.819-1.52,1.454-2.144c0.634-0.623,1.419-1.122,2.354-1.496
			s2.009-0.561,3.221-0.561c1.36,0,2.601,0.215,3.723,0.646c1.122,0.432,2.102,1.056,2.941,1.87L150.455,409.447z"/>
		<path d="M172.725,409.447c-0.102,0.17-0.21,0.297-0.323,0.382c-0.113,0.085-0.261,0.128-0.442,0.128
			c-0.193,0-0.417-0.096-0.671-0.289c-0.255-0.192-0.578-0.405-0.969-0.638c-0.391-0.231-0.861-0.444-1.411-0.639
			c-0.55-0.191-1.216-0.289-1.998-0.289c-0.737,0-1.389,0.101-1.955,0.299c-0.567,0.197-1.04,0.468-1.419,0.808
			c-0.38,0.34-0.666,0.739-0.858,1.198c-0.193,0.459-0.289,0.955-0.289,1.486c0,0.682,0.167,1.244,0.501,1.692
			c0.334,0.447,0.776,0.83,1.326,1.147c0.549,0.316,1.173,0.592,1.87,0.823c0.697,0.232,1.411,0.475,2.142,0.724
			s1.445,0.528,2.142,0.841c0.697,0.313,1.32,0.706,1.87,1.182c0.549,0.478,0.991,1.062,1.326,1.751
			c0.334,0.691,0.501,1.542,0.501,2.552c0,1.064-0.181,2.064-0.544,3c-0.363,0.935-0.893,1.747-1.589,2.438
			s-1.553,1.235-2.567,1.632c-1.015,0.396-2.167,0.596-3.459,0.596c-1.576,0-3.012-0.285-4.31-0.858
			c-1.298-0.571-2.406-1.346-3.324-2.32l0.952-1.563c0.091-0.125,0.201-0.229,0.332-0.314c0.13-0.085,0.274-0.128,0.434-0.128
			c0.238,0,0.51,0.128,0.816,0.383s0.688,0.535,1.147,0.841c0.459,0.308,1.014,0.588,1.666,0.843
			c0.651,0.255,1.448,0.383,2.389,0.383c0.782,0,1.479-0.107,2.091-0.323c0.612-0.215,1.13-0.519,1.556-0.909
			c0.425-0.392,0.75-0.857,0.978-1.401c0.227-0.544,0.34-1.15,0.34-1.819c0-0.736-0.167-1.34-0.501-1.811s-0.773-0.864-1.317-1.183
			c-0.544-0.316-1.165-0.586-1.862-0.808c-0.697-0.222-1.411-0.447-2.142-0.681c-0.731-0.232-1.445-0.502-2.142-0.808
			c-0.697-0.306-1.318-0.702-1.862-1.19c-0.544-0.485-0.983-1.096-1.317-1.826s-0.501-1.636-0.501-2.711
			c0-0.861,0.167-1.694,0.501-2.499c0.334-0.806,0.819-1.52,1.454-2.144c0.634-0.623,1.419-1.122,2.354-1.496
			s2.009-0.561,3.221-0.561c1.36,0,2.601,0.215,3.723,0.646c1.122,0.432,2.102,1.056,2.941,1.87L172.725,409.447z"/>
		<path d="M197.528,405.639v2.688h-11.696v8.092h9.469v2.584h-9.469v8.313h11.696V430h-15.011v-24.361H197.528z"/>
		<path d="M218.998,409.447c-0.102,0.17-0.209,0.297-0.322,0.382c-0.113,0.085-0.26,0.128-0.441,0.128
			c-0.193,0-0.416-0.096-0.672-0.289c-0.256-0.192-0.578-0.405-0.969-0.638c-0.391-0.231-0.861-0.444-1.412-0.639
			c-0.549-0.191-1.215-0.289-1.996-0.289c-0.738,0-1.389,0.101-1.955,0.299c-0.566,0.197-1.041,0.468-1.42,0.808
			c-0.381,0.34-0.666,0.739-0.859,1.198c-0.191,0.459-0.289,0.955-0.289,1.486c0,0.682,0.168,1.244,0.502,1.692
			c0.334,0.447,0.777,0.83,1.326,1.147c0.551,0.316,1.174,0.592,1.871,0.823c0.695,0.232,1.41,0.475,2.141,0.724
			c0.732,0.249,1.445,0.528,2.143,0.841c0.697,0.313,1.32,0.706,1.869,1.182c0.551,0.478,0.992,1.062,1.326,1.751
			c0.334,0.691,0.502,1.542,0.502,2.552c0,1.064-0.182,2.064-0.543,3c-0.363,0.935-0.893,1.747-1.59,2.438
			c-0.697,0.691-1.553,1.235-2.568,1.632c-1.014,0.396-2.166,0.596-3.459,0.596c-1.574,0-3.012-0.285-4.309-0.858
			c-1.298-0.571-2.406-1.346-3.324-2.32l0.952-1.563c0.091-0.125,0.201-0.229,0.332-0.314c0.13-0.085,0.274-0.128,0.434-0.128
			c0.238,0,0.51,0.128,0.816,0.383s0.688,0.535,1.147,0.841c0.46,0.308,1.015,0.588,1.665,0.843
			c0.652,0.255,1.449,0.383,2.389,0.383c0.783,0,1.48-0.107,2.092-0.323c0.611-0.215,1.131-0.519,1.555-0.909
			c0.426-0.392,0.752-0.857,0.979-1.401s0.34-1.15,0.34-1.819c0-0.736-0.168-1.34-0.502-1.811s-0.773-0.864-1.316-1.183
			c-0.545-0.316-1.166-0.586-1.861-0.808c-0.697-0.222-1.412-0.447-2.143-0.681c-0.731-0.232-1.445-0.502-2.143-0.808
			c-0.698-0.306-1.317-0.702-1.861-1.19c-0.544-0.485-0.983-1.096-1.317-1.826s-0.501-1.636-0.501-2.711
			c0-0.861,0.167-1.694,0.501-2.499c0.334-0.806,0.819-1.52,1.454-2.144c0.634-0.623,1.418-1.122,2.354-1.496
			s2.01-0.561,3.223-0.561c1.359,0,2.6,0.215,3.723,0.646c1.121,0.432,2.102,1.056,2.941,1.87L218.998,409.447z"/>
		<path d="M241.268,409.447c-0.102,0.17-0.209,0.297-0.322,0.382c-0.113,0.085-0.261,0.128-0.442,0.128
			c-0.192,0-0.416-0.096-0.672-0.289c-0.255-0.192-0.577-0.405-0.969-0.638c-0.391-0.231-0.861-0.444-1.411-0.639
			c-0.55-0.191-1.215-0.289-1.997-0.289c-0.737,0-1.389,0.101-1.955,0.299c-0.566,0.197-1.04,0.468-1.42,0.808
			s-0.665,0.739-0.858,1.198c-0.192,0.459-0.289,0.955-0.289,1.486c0,0.682,0.167,1.244,0.502,1.692
			c0.334,0.447,0.776,0.83,1.326,1.147c0.55,0.316,1.173,0.592,1.87,0.823c0.696,0.232,1.411,0.475,2.142,0.724
			s1.445,0.528,2.142,0.841c0.697,0.313,1.32,0.706,1.87,1.182c0.55,0.478,0.992,1.062,1.326,1.751
			c0.334,0.691,0.502,1.542,0.502,2.552c0,1.064-0.182,2.064-0.544,3c-0.363,0.935-0.893,1.747-1.59,2.438s-1.553,1.235-2.567,1.632
			c-1.014,0.396-2.167,0.596-3.459,0.596c-1.575,0-3.012-0.285-4.31-0.858c-1.298-0.571-2.405-1.346-3.323-2.32l0.952-1.563
			c0.09-0.125,0.2-0.229,0.331-0.314c0.13-0.085,0.274-0.128,0.434-0.128c0.238,0,0.51,0.128,0.815,0.383
			c0.307,0.255,0.688,0.535,1.147,0.841c0.46,0.308,1.015,0.588,1.666,0.843c0.652,0.255,1.448,0.383,2.389,0.383
			c0.782,0,1.479-0.107,2.091-0.323c0.612-0.215,1.131-0.519,1.556-0.909c0.426-0.392,0.751-0.857,0.978-1.401s0.34-1.15,0.34-1.819
			c0-0.736-0.167-1.34-0.501-1.811c-0.335-0.471-0.773-0.864-1.317-1.183c-0.544-0.317-1.165-0.586-1.861-0.808
			c-0.697-0.222-1.411-0.447-2.143-0.681c-0.73-0.231-1.444-0.502-2.142-0.808c-0.698-0.306-1.317-0.702-1.861-1.19
			c-0.544-0.485-0.983-1.096-1.318-1.826c-0.334-0.73-0.501-1.636-0.501-2.711c0-0.861,0.167-1.694,0.501-2.499
			c0.335-0.806,0.819-1.52,1.454-2.144c0.635-0.623,1.419-1.122,2.354-1.496s2.009-0.561,3.222-0.561
			c1.359,0,2.601,0.215,3.723,0.646c1.122,0.432,2.103,1.056,2.941,1.87L241.268,409.447z"/>
		<path d="M273.687,417.828c0,1.825-0.289,3.499-0.867,5.022c-0.578,1.524-1.394,2.837-2.448,3.937
			c-1.054,1.1-2.32,1.952-3.799,2.559c-1.479,0.606-3.114,0.909-4.904,0.909c-1.791,0-3.423-0.303-4.896-0.909
			c-1.473-0.605-2.737-1.459-3.791-2.559c-1.054-1.1-1.87-2.411-2.448-3.937c-0.578-1.524-0.866-3.197-0.866-5.022
			c0-1.824,0.288-3.499,0.866-5.023c0.578-1.523,1.395-2.839,2.448-3.943c1.054-1.104,2.317-1.963,3.791-2.575
			s3.105-0.918,4.896-0.918c1.79,0,3.425,0.306,4.904,0.918c1.479,0.612,2.745,1.471,3.799,2.575c1.055,1.104,1.87,2.42,2.448,3.943
			C273.398,414.329,273.687,416.004,273.687,417.828z M270.304,417.828c0-1.496-0.204-2.839-0.612-4.029
			c-0.408-1.188-0.986-2.195-1.733-3.018c-0.748-0.821-1.655-1.453-2.721-1.896c-1.065-0.44-2.255-0.663-3.569-0.663
			c-1.304,0-2.488,0.223-3.554,0.663c-1.065,0.442-1.975,1.074-2.729,1.896c-0.754,0.821-1.334,1.828-1.742,3.018
			c-0.408,1.19-0.612,2.533-0.612,4.029s0.204,2.836,0.612,4.021c0.408,1.186,0.988,2.188,1.742,3.01
			c0.754,0.821,1.663,1.45,2.729,1.887c1.065,0.437,2.25,0.655,3.554,0.655c1.314,0,2.504-0.22,3.569-0.655
			c1.065-0.437,1.973-1.064,2.721-1.887c0.747-0.821,1.325-1.824,1.733-3.01C270.1,420.664,270.304,419.324,270.304,417.828z"/>
		<path d="M286.063,419.834V430h-3.281v-24.361h6.885c1.542,0,2.873,0.156,3.995,0.469c1.122,0.312,2.049,0.763,2.779,1.352
			c0.731,0.59,1.272,1.301,1.624,2.134s0.527,1.766,0.527,2.796c0,0.861-0.137,1.666-0.408,2.414
			c-0.272,0.748-0.666,1.42-1.182,2.016c-0.516,0.595-1.145,1.103-1.887,1.521c-0.743,0.42-1.584,0.737-2.524,0.952
			c0.407,0.238,0.771,0.584,1.088,1.037l7.105,9.673h-2.924c-0.601,0-1.043-0.232-1.326-0.697l-6.324-8.704
			c-0.192-0.271-0.402-0.467-0.629-0.586s-0.566-0.179-1.02-0.179L286.063,419.834L286.063,419.834z M286.063,417.438h3.451
			c0.963,0,1.811-0.115,2.541-0.349c0.731-0.231,1.343-0.562,1.836-0.985c0.493-0.425,0.864-0.933,1.114-1.521
			c0.249-0.589,0.373-1.241,0.373-1.955c0-1.45-0.479-2.544-1.436-3.281c-0.958-0.735-2.384-1.104-4.276-1.104h-3.604
			L286.063,417.438L286.063,417.438z"/>
		<path d="M312.499,430h-3.298v-24.361h3.298V430z"/>
		<path d="M343.319,430h-2.551c-0.295,0-0.532-0.073-0.714-0.221s-0.316-0.334-0.407-0.563l-2.278-5.882h-10.931l-2.278,5.882
			c-0.079,0.204-0.215,0.386-0.408,0.544c-0.192,0.159-0.431,0.238-0.714,0.238h-2.55l9.741-24.361h3.349L343.319,430z
			 M327.356,420.956h9.095l-3.825-9.911c-0.249-0.612-0.492-1.377-0.73-2.295c-0.125,0.465-0.246,0.893-0.364,1.283
			c-0.119,0.392-0.235,0.733-0.35,1.027L327.356,420.956z"/>
		<path d="M376.468,405.639v2.688h-11.694v8.092h9.469v2.584h-9.469v8.313h11.694V430h-15.011v-24.361H376.468z"/>
		<path d="M393.553,405.639h2.736c0.295,0,0.538,0.074,0.73,0.223c0.192,0.146,0.323,0.334,0.392,0.561l5.032,16.932
			c0.091,0.308,0.173,0.637,0.247,0.986c0.072,0.353,0.144,0.72,0.212,1.105c0.079-0.387,0.157-0.757,0.237-1.114
			c0.079-0.356,0.17-0.683,0.271-0.979l5.729-16.932c0.067-0.192,0.201-0.371,0.399-0.535s0.438-0.247,0.723-0.247h0.952
			c0.294,0,0.535,0.074,0.722,0.223c0.188,0.146,0.32,0.334,0.4,0.561l5.694,16.932c0.204,0.591,0.386,1.266,0.544,2.023
			c0.067-0.374,0.131-0.73,0.188-1.071c0.058-0.34,0.13-0.656,0.222-0.952l5.049-16.932c0.057-0.204,0.185-0.385,0.383-0.544
			c0.198-0.158,0.438-0.238,0.723-0.238h2.566L420.107,430h-2.958l-6.172-18.581c-0.125-0.352-0.237-0.759-0.34-1.224
			c-0.057,0.227-0.109,0.443-0.162,0.653c-0.051,0.21-0.104,0.399-0.16,0.569L404.11,430h-2.958L393.553,405.639z"/>
		<path d="M457.795,417.828c0,1.825-0.289,3.499-0.867,5.022c-0.578,1.524-1.394,2.837-2.447,3.937c-1.055,1.1-2.32,1.952-3.8,2.559
			c-1.479,0.606-3.113,0.909-4.903,0.909c-1.791,0-3.424-0.303-4.896-0.909c-1.473-0.605-2.736-1.459-3.791-2.559
			c-1.054-1.1-1.87-2.411-2.448-3.937c-0.577-1.524-0.865-3.197-0.865-5.022c0-1.824,0.288-3.499,0.865-5.023
			c0.578-1.523,1.396-2.839,2.448-3.943c1.055-1.104,2.317-1.963,3.791-2.575c1.475-0.612,3.105-0.918,4.896-0.918
			c1.79,0,3.425,0.306,4.903,0.918c1.479,0.612,2.745,1.471,3.8,2.575s1.869,2.42,2.447,3.943
			C457.506,414.329,457.795,416.004,457.795,417.828z M454.413,417.828c0-1.496-0.204-2.839-0.612-4.029
			c-0.408-1.188-0.985-2.195-1.732-3.018c-0.748-0.821-1.655-1.453-2.722-1.896c-1.064-0.44-2.255-0.663-3.568-0.663
			c-1.305,0-2.488,0.223-3.555,0.663c-1.064,0.442-1.975,1.074-2.729,1.896c-0.754,0.821-1.334,1.828-1.742,3.018
			c-0.408,1.19-0.612,2.533-0.612,4.029s0.204,2.836,0.612,4.021c0.408,1.186,0.988,2.188,1.742,3.01s1.663,1.45,2.729,1.887
			s2.25,0.655,3.555,0.655c1.313,0,2.504-0.22,3.568-0.655c1.065-0.437,1.974-1.064,2.722-1.887c0.747-0.821,1.324-1.824,1.732-3.01
			C454.209,420.664,454.413,419.324,454.413,417.828z"/>
		<path d="M470.171,419.834V430h-3.281v-24.361h6.886c1.542,0,2.873,0.156,3.994,0.469c1.122,0.312,2.05,0.763,2.779,1.352
			c0.731,0.59,1.272,1.301,1.624,2.134c0.353,0.833,0.527,1.766,0.527,2.796c0,0.861-0.138,1.666-0.408,2.414
			c-0.272,0.748-0.666,1.42-1.182,2.016c-0.517,0.595-1.146,1.103-1.888,1.521c-0.742,0.42-1.584,0.737-2.523,0.952
			c0.407,0.238,0.771,0.584,1.088,1.037l7.104,9.673h-2.924c-0.601,0-1.043-0.232-1.326-0.697l-6.323-8.704
			c-0.192-0.271-0.402-0.467-0.629-0.586c-0.228-0.119-0.566-0.179-1.021-0.179L470.171,419.834L470.171,419.834z M470.171,417.438
			h3.451c0.963,0,1.811-0.115,2.541-0.349c0.73-0.231,1.343-0.562,1.836-0.985c0.493-0.425,0.864-0.933,1.114-1.521
			c0.249-0.589,0.373-1.241,0.373-1.955c0-1.45-0.479-2.544-1.437-3.281c-0.958-0.735-2.384-1.104-4.276-1.104h-3.604
			L470.171,417.438L470.171,417.438z"/>
		<path d="M496.317,416.315h1.24c0.432,0,0.773-0.055,1.028-0.162s0.495-0.291,0.723-0.554l8.108-9.18
			c0.249-0.283,0.49-0.484,0.723-0.604c0.233-0.12,0.53-0.18,0.894-0.18h2.805l-9.281,10.489c-0.237,0.261-0.462,0.481-0.672,0.663
			s-0.434,0.329-0.672,0.442c0.317,0.102,0.596,0.255,0.833,0.459c0.238,0.204,0.487,0.459,0.748,0.765l9.69,11.543h-2.856
			c-0.215,0-0.396-0.017-0.544-0.051s-0.274-0.079-0.382-0.136c-0.108-0.058-0.207-0.132-0.298-0.223
			c-0.092-0.091-0.183-0.187-0.272-0.289l-8.415-9.673c-0.124-0.136-0.24-0.252-0.348-0.349c-0.108-0.097-0.232-0.18-0.374-0.246
			c-0.144-0.068-0.308-0.116-0.493-0.146c-0.188-0.027-0.417-0.043-0.688-0.043h-1.496V430h-3.281v-24.361h3.281L496.317,416.315
			L496.317,416.315z"/>
		<path d="M532.578,409.447c-0.103,0.17-0.209,0.297-0.322,0.382s-0.261,0.128-0.441,0.128c-0.192,0-0.416-0.096-0.673-0.289
			c-0.255-0.192-0.577-0.405-0.969-0.638c-0.391-0.231-0.861-0.444-1.411-0.639c-0.55-0.191-1.215-0.289-1.997-0.289
			c-0.736,0-1.389,0.101-1.955,0.299c-0.565,0.197-1.04,0.468-1.42,0.808s-0.665,0.739-0.857,1.198s-0.289,0.955-0.289,1.486
			c0,0.682,0.167,1.244,0.502,1.692c0.334,0.447,0.776,0.83,1.326,1.147c0.55,0.316,1.173,0.592,1.87,0.823
			c0.695,0.232,1.41,0.475,2.142,0.724s1.445,0.528,2.142,0.841c0.697,0.313,1.32,0.706,1.87,1.182
			c0.55,0.478,0.992,1.062,1.326,1.751c0.334,0.691,0.502,1.542,0.502,2.552c0,1.064-0.182,2.064-0.544,3
			c-0.363,0.935-0.893,1.747-1.59,2.438s-1.553,1.235-2.567,1.632c-1.014,0.396-2.167,0.596-3.459,0.596
			c-1.575,0-3.012-0.285-4.31-0.858c-1.298-0.571-2.405-1.346-3.323-2.32l0.952-1.563c0.09-0.125,0.2-0.229,0.331-0.314
			c0.13-0.085,0.274-0.128,0.434-0.128c0.238,0,0.511,0.128,0.815,0.383c0.307,0.255,0.688,0.535,1.146,0.841
			c0.461,0.308,1.016,0.588,1.666,0.843c0.652,0.255,1.448,0.383,2.39,0.383c0.782,0,1.479-0.107,2.091-0.323
			c0.612-0.215,1.131-0.519,1.556-0.909c0.427-0.392,0.751-0.857,0.979-1.401c0.227-0.544,0.34-1.15,0.34-1.819
			c0-0.736-0.167-1.34-0.501-1.811c-0.335-0.471-0.773-0.864-1.317-1.183c-0.544-0.317-1.165-0.586-1.86-0.808
			c-0.697-0.222-1.411-0.447-2.144-0.681c-0.729-0.231-1.443-0.502-2.142-0.808s-1.317-0.702-1.861-1.19
			c-0.544-0.485-0.982-1.096-1.318-1.826c-0.334-0.73-0.5-1.636-0.5-2.711c0-0.861,0.166-1.694,0.5-2.499
			c0.336-0.806,0.819-1.52,1.454-2.144c0.636-0.623,1.419-1.122,2.354-1.496c0.935-0.374,2.009-0.561,3.222-0.561
			c1.359,0,2.602,0.215,3.724,0.646c1.121,0.432,2.103,1.056,2.94,1.87L532.578,409.447z"/>
		<path d="M562.124,430h-3.314v-11.084h-13.124V430h-3.314v-24.361h3.314v10.863h13.124v-10.863h3.314V430z"/>
		<path d="M594.951,417.828c0,1.825-0.289,3.499-0.867,5.022c-0.578,1.524-1.394,2.837-2.448,3.937
			c-1.054,1.1-2.319,1.952-3.799,2.559c-1.479,0.606-3.114,0.909-4.904,0.909c-1.791,0-3.423-0.303-4.896-0.909
			c-1.473-0.605-2.737-1.459-3.791-2.559s-1.87-2.411-2.448-3.937c-0.578-1.524-0.866-3.197-0.866-5.022
			c0-1.824,0.288-3.499,0.866-5.023c0.578-1.523,1.396-2.839,2.448-3.943c1.054-1.104,2.316-1.963,3.791-2.575
			c1.474-0.612,3.104-0.918,4.896-0.918c1.79,0,3.426,0.306,4.904,0.918c1.479,0.612,2.745,1.471,3.799,2.575
			c1.056,1.104,1.87,2.42,2.448,3.943C594.662,414.329,594.951,416.004,594.951,417.828z M591.568,417.828
			c0-1.496-0.204-2.839-0.612-4.029c-0.408-1.188-0.986-2.195-1.733-3.018c-0.748-0.821-1.654-1.453-2.721-1.896
			c-1.064-0.44-2.255-0.663-3.569-0.663c-1.304,0-2.487,0.223-3.554,0.663c-1.064,0.442-1.975,1.074-2.729,1.896
			c-0.754,0.821-1.334,1.828-1.742,3.018c-0.408,1.19-0.612,2.533-0.612,4.029s0.204,2.836,0.612,4.021
			c0.408,1.186,0.988,2.188,1.742,3.01s1.663,1.45,2.729,1.887s2.25,0.655,3.554,0.655c1.314,0,2.505-0.22,3.569-0.655
			c1.065-0.437,1.973-1.064,2.721-1.887c0.747-0.821,1.325-1.824,1.733-3.01C591.364,420.664,591.568,419.324,591.568,417.828z"/>
		<path d="M607.327,420.888V430h-3.281v-24.361h7.191c1.541,0,2.881,0.18,4.021,0.536c1.139,0.356,2.082,0.864,2.83,1.521
			c0.748,0.656,1.307,1.45,1.675,2.38s0.554,1.966,0.554,3.109c0,1.135-0.199,2.172-0.597,3.111
			c-0.396,0.941-0.978,1.751-1.742,2.431c-0.765,0.682-1.714,1.21-2.848,1.591c-1.133,0.38-2.431,0.568-3.893,0.568L607.327,420.888
			L607.327,420.888z M607.327,418.27h3.91c0.939,0,1.771-0.123,2.489-0.372c0.721-0.25,1.323-0.599,1.812-1.047
			c0.487-0.446,0.854-0.982,1.104-1.605c0.25-0.623,0.374-1.311,0.374-2.058c0-1.553-0.479-2.766-1.437-3.639
			c-0.957-0.872-2.405-1.309-4.343-1.309h-3.91L607.327,418.27L607.327,418.27z"/>
	</g>
</g>
<g id="TITULO_1_">
	<g>
		<path d="M-68.788,321.65h15.855l10.063,32.754h0.305l10.405-32.754h15.588V376h-9.141v-45.855h-0.229l-1.028,3.429
			c-0.28,0.965-0.584,1.975-0.914,3.026c-0.33,1.055-0.623,1.963-0.876,2.725l-7.008,21.938H-49.44l-7.16-22.09
			c-0.254-0.762-0.546-1.656-0.876-2.686c-0.33-1.028-0.635-2.012-0.914-2.951c-0.33-1.092-0.673-2.223-1.028-3.391h-0.229V376
			h-9.141V321.65z"/>
		<path d="M-2.747,321.65h32.678v8.494H6.394v14.281h19.729v8.342H6.394v14.738h24.185V376H-2.747V321.65z"/>
		<path d="M50.84,330.068H34.539v-8.418h41.818v8.418H59.904V376H50.84V330.068z"/>
		<path d="M83.746,321.65h20.224c1.447,0,2.862,0.096,4.247,0.287c1.384,0.188,2.691,0.525,3.923,1.008
			c1.231,0.482,2.355,1.138,3.371,1.963c1.015,0.824,1.898,1.885,2.647,3.18s1.327,2.844,1.733,4.646
			c0.406,1.803,0.609,3.923,0.609,6.359c0,1.625-0.133,3.079-0.4,4.36c-0.267,1.282-0.623,2.419-1.066,3.409
			c-0.444,0.99-0.952,1.854-1.523,2.59c-0.571,0.736-1.149,1.371-1.733,1.904c-1.396,1.219-2.971,2.068-4.723,2.552v0.075
			L122.518,376h-10.436l-10.169-19.957h-9.026V376h-9.141V321.65z M103.894,347.436c4.773,0,7.16-2.957,7.16-8.873
			c0-1.549-0.171-2.862-0.514-3.942c-0.343-1.078-0.838-1.948-1.485-2.608s-1.428-1.136-2.342-1.429
			c-0.914-0.291-1.93-0.438-3.047-0.438H92.887v17.291H103.894L103.894,347.436z"/>
		<path d="M152.491,377.182c-2.336,0-4.507-0.166-6.513-0.496s-3.834-0.906-5.484-1.731c-1.651-0.825-3.117-1.925-4.399-3.295
			c-1.282-1.371-2.368-3.104-3.256-5.199c-0.889-2.094-1.562-4.576-2.019-7.444c-0.457-2.869-0.686-6.209-0.686-10.018
			c0-5.713,0.508-10.41,1.523-14.092c1.015-3.682,2.488-6.582,4.418-8.702c1.929-2.12,4.278-3.593,7.046-4.418
			c2.767-0.825,5.89-1.238,9.369-1.238c2.31,0,4.469,0.179,6.475,0.533c2.005,0.354,3.833,0.952,5.484,1.79
			c1.65,0.838,3.11,1.962,4.38,3.37c1.27,1.409,2.342,3.168,3.218,5.274c0.876,2.107,1.542,4.604,2,7.484s0.686,6.214,0.686,9.997
			c0,3.782-0.229,7.108-0.686,9.979c-0.457,2.869-1.124,5.351-2,7.445c-0.876,2.094-1.949,3.834-3.218,5.217
			c-1.27,1.385-2.729,2.482-4.38,3.295c-1.651,0.813-3.479,1.392-5.484,1.732C156.96,377.01,154.801,377.182,152.491,377.182z
			 M152.491,368.764c2.488,0,4.551-0.291,6.189-0.875c1.638-0.584,2.938-1.619,3.904-3.104c0.965-1.484,1.644-3.505,2.038-6.056
			c0.394-2.553,0.59-5.795,0.59-9.73c0-3.961-0.197-7.225-0.59-9.788c-0.394-2.563-1.073-4.603-2.038-6.112
			c-0.965-1.511-2.266-2.563-3.904-3.16c-1.638-0.598-3.701-0.896-6.189-0.896c-2.489,0-4.558,0.299-6.208,0.896
			c-1.651,0.597-2.958,1.649-3.923,3.16c-0.965,1.512-1.644,3.549-2.038,6.112c-0.394,2.563-0.59,5.827-0.59,9.788
			c0,3.936,0.196,7.179,0.59,9.73c0.394,2.551,1.072,4.57,2.038,6.056c0.965,1.485,2.272,2.521,3.923,3.104
			C147.934,368.473,150.002,368.764,152.491,368.764z"/>
		<path d="M186.045,321.65h21.557c1.167,0,2.348,0.09,3.542,0.268c1.193,0.178,2.336,0.514,3.428,1.01
			c1.091,0.494,2.107,1.161,3.047,1.999c0.938,0.839,1.764,1.911,2.475,3.218c0.711,1.31,1.264,2.89,1.657,4.742
			c0.393,1.854,0.591,4.024,0.591,6.514c0,2.488-0.217,4.652-0.648,6.492c-0.432,1.842-1.016,3.409-1.752,4.705
			c-0.736,1.295-1.6,2.348-2.59,3.16c-0.99,0.813-2.043,1.454-3.161,1.924c-1.118,0.471-2.266,0.787-3.447,0.951
			c-1.181,0.166-2.342,0.248-3.485,0.248h-12.073V376h-9.141V321.65z M206.192,348.389c1.371,0,2.481-0.229,3.333-0.687
			c0.851-0.457,1.523-1.093,2.019-1.904s0.832-1.765,1.009-2.856c0.177-1.092,0.267-2.271,0.267-3.541
			c0-1.244-0.089-2.426-0.267-3.543c-0.178-1.116-0.514-2.101-1.009-2.95c-0.495-0.851-1.168-1.523-2.019-2.021
			c-0.851-0.494-1.961-0.742-3.333-0.742h-11.007v18.244H206.192L206.192,348.389z"/>
		<path d="M252.125,377.182c-2.336,0-4.507-0.166-6.513-0.496c-2.006-0.33-3.834-0.906-5.484-1.731s-3.117-1.925-4.399-3.295
			c-1.282-1.371-2.367-3.104-3.256-5.199c-0.889-2.094-1.562-4.576-2.019-7.444c-0.457-2.869-0.686-6.209-0.686-10.018
			c0-5.713,0.508-10.41,1.523-14.092s2.488-6.582,4.418-8.702s4.278-3.593,7.046-4.418s5.891-1.238,9.369-1.238
			c2.311,0,4.469,0.179,6.475,0.533c2.006,0.354,3.834,0.952,5.484,1.79s3.11,1.962,4.38,3.37c1.27,1.409,2.343,3.168,3.218,5.274
			c0.877,2.107,1.543,4.604,2,7.484s0.686,6.214,0.686,9.997c0,3.782-0.229,7.108-0.686,9.979c-0.457,2.869-1.123,5.351-2,7.445
			c-0.875,2.094-1.948,3.834-3.218,5.217c-1.27,1.385-2.729,2.482-4.38,3.295c-1.651,0.813-3.479,1.392-5.484,1.732
			C256.593,377.01,254.435,377.182,252.125,377.182z M252.125,368.764c2.488,0,4.551-0.291,6.189-0.875
			c1.637-0.584,2.938-1.619,3.903-3.104c0.965-1.484,1.644-3.505,2.038-6.056c0.393-2.553,0.59-5.795,0.59-9.73
			c0-3.961-0.197-7.225-0.59-9.788c-0.395-2.563-1.073-4.603-2.038-6.112c-0.965-1.511-2.267-2.563-3.903-3.16
			c-1.639-0.598-3.701-0.896-6.189-0.896s-4.558,0.299-6.208,0.896c-1.65,0.597-2.958,1.649-3.923,3.16
			c-0.965,1.512-1.645,3.549-2.037,6.112c-0.395,2.563-0.591,5.827-0.591,9.788c0,3.936,0.196,7.179,0.591,9.73
			c0.393,2.551,1.072,4.57,2.037,6.056c0.965,1.485,2.272,2.521,3.923,3.104C247.568,368.471,249.636,368.764,252.125,368.764z"/>
		<path d="M285.677,321.65h9.141v45.855h22.471V376h-31.611v-54.35H285.677z"/>
		<path d="M325.896,321.65h9.141V376h-9.141V321.65z"/>
		<path d="M346.539,367.889c1.295,0.178,2.691,0.329,4.188,0.457c1.296,0.127,2.773,0.229,4.438,0.305
			c1.662,0.076,3.421,0.113,5.274,0.113c2.463,0,4.418-0.158,5.864-0.477c1.447-0.316,2.553-0.786,3.313-1.408
			s1.25-1.391,1.467-2.305c0.215-0.914,0.323-1.969,0.323-3.161c0-0.938-0.045-1.796-0.134-2.571
			c-0.09-0.773-0.299-1.466-0.629-2.074c-0.329-0.609-0.8-1.137-1.408-1.582c-0.609-0.442-1.447-0.806-2.515-1.084l-11.083-2.896
			c-1.752-0.457-3.236-1.072-4.456-1.847c-1.219-0.775-2.203-1.76-2.95-2.952c-0.75-1.193-1.296-2.634-1.64-4.323
			c-0.342-1.688-0.514-3.675-0.514-5.96c0-2.69,0.406-5.021,1.219-6.989c0.813-1.967,1.961-3.586,3.447-4.854
			c1.483-1.271,3.281-2.21,5.389-2.818c2.108-0.608,4.456-0.914,7.046-0.914c2.158,0,4.132,0.121,5.923,0.361
			c1.789,0.241,3.332,0.502,4.627,0.78c1.523,0.33,2.907,0.699,4.151,1.104v7.046c-1.143-0.152-2.349-0.292-3.618-0.419
			c-1.092-0.127-2.316-0.233-3.676-0.323c-1.359-0.089-2.761-0.134-4.208-0.134c-2.26,0-4.113,0.076-5.561,0.229
			c-1.448,0.152-2.591,0.47-3.429,0.951c-0.838,0.482-1.422,1.168-1.752,2.058c-0.33,0.889-0.495,2.069-0.495,3.542
			c0,0.813,0.044,1.536,0.134,2.171s0.293,1.192,0.61,1.676c0.317,0.482,0.775,0.901,1.373,1.257
			c0.597,0.355,1.404,0.687,2.422,0.99l10.337,2.971c1.322,0.381,2.498,0.78,3.528,1.2c1.029,0.418,1.926,0.914,2.688,1.484
			c0.764,0.571,1.418,1.237,1.965,2c0.546,0.762,0.983,1.67,1.314,2.723c0.331,1.056,0.572,2.292,0.726,3.714
			c0.152,1.422,0.229,3.061,0.229,4.913c0,2.896-0.248,5.378-0.744,7.445c-0.495,2.069-1.43,3.759-2.802,5.065
			c-1.373,1.309-3.261,2.272-5.662,2.896c-2.401,0.621-5.51,0.933-9.322,0.933c-2.948,0-5.396-0.134-7.34-0.398
			c-1.944-0.268-3.526-0.565-4.747-0.896c-1.397-0.381-2.505-0.813-3.316-1.295v-6.703H346.539z"/>
		<path fill="#E3342F" d="M395.856,321.65h20.224c1.447,0,2.862,0.096,4.247,0.287c1.383,0.188,2.689,0.525,3.922,1.008
			c1.231,0.484,2.354,1.138,3.371,1.963c1.016,0.824,1.896,1.885,2.646,3.18s1.327,2.844,1.733,4.646
			c0.406,1.802,0.609,3.923,0.609,6.359c0,1.625-0.135,3.079-0.399,4.36c-0.268,1.282-0.623,2.419-1.066,3.409
			c-0.444,0.99-0.952,1.854-1.522,2.59c-0.572,0.736-1.149,1.371-1.733,1.904c-1.396,1.219-2.971,2.068-4.723,2.552v0.075
			L434.627,376h-10.436l-10.169-19.957h-9.026V376h-9.141L395.856,321.65L395.856,321.65z M416.003,347.436
			c4.773,0,7.16-2.957,7.16-8.873c0-1.549-0.171-2.862-0.515-3.942c-0.343-1.078-0.839-1.948-1.484-2.608
			c-0.648-0.66-1.429-1.136-2.343-1.429c-0.914-0.291-1.931-0.438-3.047-0.438h-10.778v17.291H416.003L416.003,347.436z"/>
		<path fill="#E3342F" d="M444.796,321.65h9.142V376h-9.142V321.65z"/>
		<path fill="#E3342F" d="M487.605,377.182c-2.336,0-4.508-0.166-6.514-0.496s-3.834-0.906-5.483-1.731
			c-1.65-0.825-3.117-1.925-4.399-3.295c-1.282-1.371-2.367-3.104-3.256-5.199c-0.889-2.094-1.563-4.576-2.02-7.444
			c-0.457-2.869-0.686-6.209-0.686-10.018c0-5.713,0.508-10.41,1.523-14.092c1.015-3.682,2.487-6.582,4.418-8.702
			c1.93-2.12,4.277-3.593,7.046-4.418c2.768-0.825,5.891-1.238,9.368-1.238c2.312,0,4.47,0.179,6.476,0.533s3.834,0.952,5.483,1.79
			c1.65,0.838,3.11,1.962,4.381,3.37c1.27,1.409,2.343,3.168,3.218,5.274c0.877,2.107,1.543,4.604,2,7.484s0.686,6.214,0.686,9.997
			c0,3.782-0.229,7.108-0.686,9.979c-0.457,2.869-1.123,5.351-2,7.445c-0.875,2.094-1.948,3.834-3.218,5.217
			c-1.271,1.385-2.729,2.482-4.381,3.295c-1.65,0.813-3.479,1.392-5.483,1.732C492.074,377.01,489.916,377.182,487.605,377.182z
			 M487.605,368.764c2.487,0,4.551-0.291,6.188-0.875c1.637-0.584,2.938-1.619,3.903-3.104c0.965-1.484,1.644-3.505,2.038-6.056
			c0.393-2.553,0.59-5.795,0.59-9.73c0-3.961-0.197-7.225-0.59-9.788c-0.396-2.563-1.073-4.603-2.038-6.112
			c-0.965-1.511-2.268-2.563-3.903-3.16c-1.639-0.598-3.701-0.896-6.188-0.896c-2.488,0-4.559,0.299-6.209,0.896
			c-1.649,0.597-2.957,1.649-3.923,3.16c-0.965,1.512-1.645,3.549-2.036,6.112c-0.396,2.563-0.592,5.827-0.592,9.788
			c0,3.936,0.196,7.179,0.592,9.73c0.393,2.551,1.071,4.57,2.036,6.056c0.966,1.485,2.272,2.521,3.923,3.104
			C483.048,368.471,485.117,368.764,487.605,368.764z"/>
	</g>
</g>
<g id="LOGO">
	<polygon fill="#A5A5A5" points="89.903,0 2.5,269 86.5,269 132.051,128.804 90.202,0 	"/>
	<polygon fill="#A5A5A5" points="174.202,0 173.903,0 132.051,128.804 177.253,267.921 219.253,138.657 	"/>
	<polygon opacity="0.91" fill="#AFAFAF" enable-background="new    " points="90.202,0 132.051,128.804 173.903,0 	"/>
	<polygon opacity="0.91" fill="#515151" enable-background="new    " points="90.202,0 132.051,128.804 173.903,0 	"/>
	<polygon fill="#E3342F" points="264.605,0 264.306,0 219.253,138.657 261.253,267.921 306.457,128.804 	"/>
	<polygon opacity="0.91" fill="#AFAFAF" enable-background="new    " points="177.253,267.921 177.604,269 260.903,269 
		261.253,267.921 219.253,138.657 	"/>
	<polygon opacity="0.91" fill="#8C2323" enable-background="new    " points="177.253,267.921 177.604,269 260.903,269 
		261.253,267.921 219.253,138.657 	"/>
	<polygon fill="#E3342F" points="352.007,269 436.007,269 348.605,0 348.306,0 306.457,128.804 	"/>
	<polygon opacity="0.91" fill="#E3342F" enable-background="new    " points="348.306,0 264.605,0 306.457,128.804 	"/>
	<polygon opacity="0.91" fill="#BC2626" enable-background="new    " points="348.306,0 264.605,0 306.457,128.804 	"/>
</g>
</svg>
