<?xml version="1.0" encoding="utf-8"?>
<!-- Generator: Adobe Illustrator 16.0.0, SVG Export Plug-In . SVG Version: 6.00 Build 0)  -->
<!DOCTYPE svg PUBLIC "-//W3C//DTD SVG 1.1//EN" "http://www.w3.org/Graphics/SVG/1.1/DTD/svg11.dtd">
<svg version="1.1" id="Layer_1" xmlns="http://www.w3.org/2000/svg" xmlns:xlink="http://www.w3.org/1999/xlink" x="0px" y="0px"
	 width="433.507px" height="269px" viewBox="0 0 433.507 269" enable-background="new 0 0 433.507 269" xml:space="preserve">
<g>
	<polygon opacity="0.78" fill="#FFFFFF" enable-background="new    " points="87.403,0 0,269 84,269 129.552,128.804 87.702,0 	"/>
	<polygon opacity="0.78" fill="#FFFFFF" enable-background="new    " points="171.702,0 171.403,0 129.552,128.804 174.754,267.921 
		216.754,138.657 	"/>
	<polygon opacity="0.91" fill="#FFFFFF" enable-background="new    " points="87.702,0 129.552,128.804 171.403,0 	"/>
	<polygon opacity="0.91" fill="#FFFFFF" enable-background="new    " points="87.702,0 129.552,128.804 171.403,0 	"/>
	<polygon opacity="0.78" fill="#FFFFFF" enable-background="new    " points="262.105,0 261.806,0 216.754,138.657 258.753,267.921 
		303.957,128.804 	"/>
	<polygon opacity="0.91" fill="#FFFFFF" enable-background="new    " points="174.754,267.921 175.104,269 258.403,269 
		258.753,267.921 216.754,138.657 	"/>
	<polygon opacity="0.91" fill="#FFFFFF" enable-background="new    " points="174.754,267.921 175.104,269 258.403,269 
		258.753,267.921 216.754,138.657 	"/>
	<polygon opacity="0.78" fill="#FFFFFF" enable-background="new    " points="349.507,269 433.507,269 346.105,0 345.806,0 
		303.957,128.804 	"/>
	<polygon opacity="0.91" fill="#FFFFFF" enable-background="new    " points="345.806,0 262.105,0 303.957,128.804 	"/>
	<polygon opacity="0.91" fill="#FFFFFF" enable-background="new    " points="345.806,0 262.105,0 303.957,128.804 	"/>
</g>
</svg>
